<?xml version="1.0" encoding="utf-8" standalone="no"?>
<!DOCTYPE svg PUBLIC "-//W3C//DTD SVG 1.1//EN"
  "http://www.w3.org/Graphics/SVG/1.1/DTD/svg11.dtd">
<!-- Created with matplotlib (http://matplotlib.org/) -->
<svg height="345.6pt" version="1.1" viewBox="0 0 460.8 345.6" width="460.8pt" xmlns="http://www.w3.org/2000/svg" xmlns:xlink="http://www.w3.org/1999/xlink">
 <defs>
  <style type="text/css">
*{stroke-linecap:butt;stroke-linejoin:round;}
  </style>
 </defs>
 <g id="figure_1">
  <g id="patch_1">
   <path d="M 0 345.6 
L 460.8 345.6 
L 460.8 0 
L 0 0 
z
" style="fill:#ffffff;"/>
  </g>
  <g id="axes_1">
   <g id="patch_2">
    <path d="M 57.6 307.584 
L 414.72 307.584 
L 414.72 41.472 
L 57.6 41.472 
z
" style="fill:#ffffff;"/>
   </g>
   <g id="matplotlib.axis_1">
    <g id="xtick_1">
     <g id="line2d_1">
      <defs>
       <path d="M 0 0 
L 0 3.5 
" id="mab14204105" style="stroke:#000000;stroke-width:0.8;"/>
      </defs>
      <g>
       <use style="stroke:#000000;stroke-width:0.8;" x="73.832727" xlink:href="#mab14204105" y="307.584"/>
      </g>
     </g>
     <g id="text_1">
      <!-- 0 -->
      <defs>
       <path d="M 31.78125 66.40625 
Q 24.171875 66.40625 20.328125 58.90625 
Q 16.5 51.421875 16.5 36.375 
Q 16.5 21.390625 20.328125 13.890625 
Q 24.171875 6.390625 31.78125 6.390625 
Q 39.453125 6.390625 43.28125 13.890625 
Q 47.125 21.390625 47.125 36.375 
Q 47.125 51.421875 43.28125 58.90625 
Q 39.453125 66.40625 31.78125 66.40625 
z
M 31.78125 74.21875 
Q 44.046875 74.21875 50.515625 64.515625 
Q 56.984375 54.828125 56.984375 36.375 
Q 56.984375 17.96875 50.515625 8.265625 
Q 44.046875 -1.421875 31.78125 -1.421875 
Q 19.53125 -1.421875 13.0625 8.265625 
Q 6.59375 17.96875 6.59375 36.375 
Q 6.59375 54.828125 13.0625 64.515625 
Q 19.53125 74.21875 31.78125 74.21875 
z
" id="DejaVuSans-30"/>
      </defs>
      <g transform="translate(70.651477 322.182437)scale(0.1 -0.1)">
       <use xlink:href="#DejaVuSans-30"/>
      </g>
     </g>
    </g>
    <g id="xtick_2">
     <g id="line2d_2">
      <g>
       <use style="stroke:#000000;stroke-width:0.8;" x="138.828632" xlink:href="#mab14204105" y="307.584"/>
      </g>
     </g>
     <g id="text_2">
      <!-- 200 -->
      <defs>
       <path d="M 19.1875 8.296875 
L 53.609375 8.296875 
L 53.609375 0 
L 7.328125 0 
L 7.328125 8.296875 
Q 12.9375 14.109375 22.625 23.890625 
Q 32.328125 33.6875 34.8125 36.53125 
Q 39.546875 41.84375 41.421875 45.53125 
Q 43.3125 49.21875 43.3125 52.78125 
Q 43.3125 58.59375 39.234375 62.25 
Q 35.15625 65.921875 28.609375 65.921875 
Q 23.96875 65.921875 18.8125 64.3125 
Q 13.671875 62.703125 7.8125 59.421875 
L 7.8125 69.390625 
Q 13.765625 71.78125 18.9375 73 
Q 24.125 74.21875 28.421875 74.21875 
Q 39.75 74.21875 46.484375 68.546875 
Q 53.21875 62.890625 53.21875 53.421875 
Q 53.21875 48.921875 51.53125 44.890625 
Q 49.859375 40.875 45.40625 35.40625 
Q 44.1875 33.984375 37.640625 27.21875 
Q 31.109375 20.453125 19.1875 8.296875 
z
" id="DejaVuSans-32"/>
      </defs>
      <g transform="translate(129.284882 322.182437)scale(0.1 -0.1)">
       <use xlink:href="#DejaVuSans-32"/>
       <use x="63.623047" xlink:href="#DejaVuSans-30"/>
       <use x="127.246094" xlink:href="#DejaVuSans-30"/>
      </g>
     </g>
    </g>
    <g id="xtick_3">
     <g id="line2d_3">
      <g>
       <use style="stroke:#000000;stroke-width:0.8;" x="203.824537" xlink:href="#mab14204105" y="307.584"/>
      </g>
     </g>
     <g id="text_3">
      <!-- 400 -->
      <defs>
       <path d="M 37.796875 64.3125 
L 12.890625 25.390625 
L 37.796875 25.390625 
z
M 35.203125 72.90625 
L 47.609375 72.90625 
L 47.609375 25.390625 
L 58.015625 25.390625 
L 58.015625 17.1875 
L 47.609375 17.1875 
L 47.609375 0 
L 37.796875 0 
L 37.796875 17.1875 
L 4.890625 17.1875 
L 4.890625 26.703125 
z
" id="DejaVuSans-34"/>
      </defs>
      <g transform="translate(194.280787 322.182437)scale(0.1 -0.1)">
       <use xlink:href="#DejaVuSans-34"/>
       <use x="63.623047" xlink:href="#DejaVuSans-30"/>
       <use x="127.246094" xlink:href="#DejaVuSans-30"/>
      </g>
     </g>
    </g>
    <g id="xtick_4">
     <g id="line2d_4">
      <g>
       <use style="stroke:#000000;stroke-width:0.8;" x="268.820442" xlink:href="#mab14204105" y="307.584"/>
      </g>
     </g>
     <g id="text_4">
      <!-- 600 -->
      <defs>
       <path d="M 33.015625 40.375 
Q 26.375 40.375 22.484375 35.828125 
Q 18.609375 31.296875 18.609375 23.390625 
Q 18.609375 15.53125 22.484375 10.953125 
Q 26.375 6.390625 33.015625 6.390625 
Q 39.65625 6.390625 43.53125 10.953125 
Q 47.40625 15.53125 47.40625 23.390625 
Q 47.40625 31.296875 43.53125 35.828125 
Q 39.65625 40.375 33.015625 40.375 
z
M 52.59375 71.296875 
L 52.59375 62.3125 
Q 48.875 64.0625 45.09375 64.984375 
Q 41.3125 65.921875 37.59375 65.921875 
Q 27.828125 65.921875 22.671875 59.328125 
Q 17.53125 52.734375 16.796875 39.40625 
Q 19.671875 43.65625 24.015625 45.921875 
Q 28.375 48.1875 33.59375 48.1875 
Q 44.578125 48.1875 50.953125 41.515625 
Q 57.328125 34.859375 57.328125 23.390625 
Q 57.328125 12.15625 50.6875 5.359375 
Q 44.046875 -1.421875 33.015625 -1.421875 
Q 20.359375 -1.421875 13.671875 8.265625 
Q 6.984375 17.96875 6.984375 36.375 
Q 6.984375 53.65625 15.1875 63.9375 
Q 23.390625 74.21875 37.203125 74.21875 
Q 40.921875 74.21875 44.703125 73.484375 
Q 48.484375 72.75 52.59375 71.296875 
z
" id="DejaVuSans-36"/>
      </defs>
      <g transform="translate(259.276692 322.182437)scale(0.1 -0.1)">
       <use xlink:href="#DejaVuSans-36"/>
       <use x="63.623047" xlink:href="#DejaVuSans-30"/>
       <use x="127.246094" xlink:href="#DejaVuSans-30"/>
      </g>
     </g>
    </g>
    <g id="xtick_5">
     <g id="line2d_5">
      <g>
       <use style="stroke:#000000;stroke-width:0.8;" x="333.816347" xlink:href="#mab14204105" y="307.584"/>
      </g>
     </g>
     <g id="text_5">
      <!-- 800 -->
      <defs>
       <path d="M 31.78125 34.625 
Q 24.75 34.625 20.71875 30.859375 
Q 16.703125 27.09375 16.703125 20.515625 
Q 16.703125 13.921875 20.71875 10.15625 
Q 24.75 6.390625 31.78125 6.390625 
Q 38.8125 6.390625 42.859375 10.171875 
Q 46.921875 13.96875 46.921875 20.515625 
Q 46.921875 27.09375 42.890625 30.859375 
Q 38.875 34.625 31.78125 34.625 
z
M 21.921875 38.8125 
Q 15.578125 40.375 12.03125 44.71875 
Q 8.5 49.078125 8.5 55.328125 
Q 8.5 64.0625 14.71875 69.140625 
Q 20.953125 74.21875 31.78125 74.21875 
Q 42.671875 74.21875 48.875 69.140625 
Q 55.078125 64.0625 55.078125 55.328125 
Q 55.078125 49.078125 51.53125 44.71875 
Q 48 40.375 41.703125 38.8125 
Q 48.828125 37.15625 52.796875 32.3125 
Q 56.78125 27.484375 56.78125 20.515625 
Q 56.78125 9.90625 50.3125 4.234375 
Q 43.84375 -1.421875 31.78125 -1.421875 
Q 19.734375 -1.421875 13.25 4.234375 
Q 6.78125 9.90625 6.78125 20.515625 
Q 6.78125 27.484375 10.78125 32.3125 
Q 14.796875 37.15625 21.921875 38.8125 
z
M 18.3125 54.390625 
Q 18.3125 48.734375 21.84375 45.5625 
Q 25.390625 42.390625 31.78125 42.390625 
Q 38.140625 42.390625 41.71875 45.5625 
Q 45.3125 48.734375 45.3125 54.390625 
Q 45.3125 60.0625 41.71875 63.234375 
Q 38.140625 66.40625 31.78125 66.40625 
Q 25.390625 66.40625 21.84375 63.234375 
Q 18.3125 60.0625 18.3125 54.390625 
z
" id="DejaVuSans-38"/>
      </defs>
      <g transform="translate(324.272597 322.182437)scale(0.1 -0.1)">
       <use xlink:href="#DejaVuSans-38"/>
       <use x="63.623047" xlink:href="#DejaVuSans-30"/>
       <use x="127.246094" xlink:href="#DejaVuSans-30"/>
      </g>
     </g>
    </g>
    <g id="xtick_6">
     <g id="line2d_6">
      <g>
       <use style="stroke:#000000;stroke-width:0.8;" x="398.812252" xlink:href="#mab14204105" y="307.584"/>
      </g>
     </g>
     <g id="text_6">
      <!-- 1000 -->
      <defs>
       <path d="M 12.40625 8.296875 
L 28.515625 8.296875 
L 28.515625 63.921875 
L 10.984375 60.40625 
L 10.984375 69.390625 
L 28.421875 72.90625 
L 38.28125 72.90625 
L 38.28125 8.296875 
L 54.390625 8.296875 
L 54.390625 0 
L 12.40625 0 
z
" id="DejaVuSans-31"/>
      </defs>
      <g transform="translate(386.087252 322.182437)scale(0.1 -0.1)">
       <use xlink:href="#DejaVuSans-31"/>
       <use x="63.623047" xlink:href="#DejaVuSans-30"/>
       <use x="127.246094" xlink:href="#DejaVuSans-30"/>
       <use x="190.869141" xlink:href="#DejaVuSans-30"/>
      </g>
     </g>
    </g>
    <g id="text_7">
     <!-- time step -->
     <defs>
      <path d="M 18.3125 70.21875 
L 18.3125 54.6875 
L 36.8125 54.6875 
L 36.8125 47.703125 
L 18.3125 47.703125 
L 18.3125 18.015625 
Q 18.3125 11.328125 20.140625 9.421875 
Q 21.96875 7.515625 27.59375 7.515625 
L 36.8125 7.515625 
L 36.8125 0 
L 27.59375 0 
Q 17.1875 0 13.234375 3.875 
Q 9.28125 7.765625 9.28125 18.015625 
L 9.28125 47.703125 
L 2.6875 47.703125 
L 2.6875 54.6875 
L 9.28125 54.6875 
L 9.28125 70.21875 
z
" id="DejaVuSans-74"/>
      <path d="M 9.421875 54.6875 
L 18.40625 54.6875 
L 18.40625 0 
L 9.421875 0 
z
M 9.421875 75.984375 
L 18.40625 75.984375 
L 18.40625 64.59375 
L 9.421875 64.59375 
z
" id="DejaVuSans-69"/>
      <path d="M 52 44.1875 
Q 55.375 50.25 60.0625 53.125 
Q 64.75 56 71.09375 56 
Q 79.640625 56 84.28125 50.015625 
Q 88.921875 44.046875 88.921875 33.015625 
L 88.921875 0 
L 79.890625 0 
L 79.890625 32.71875 
Q 79.890625 40.578125 77.09375 44.375 
Q 74.3125 48.1875 68.609375 48.1875 
Q 61.625 48.1875 57.5625 43.546875 
Q 53.515625 38.921875 53.515625 30.90625 
L 53.515625 0 
L 44.484375 0 
L 44.484375 32.71875 
Q 44.484375 40.625 41.703125 44.40625 
Q 38.921875 48.1875 33.109375 48.1875 
Q 26.21875 48.1875 22.15625 43.53125 
Q 18.109375 38.875 18.109375 30.90625 
L 18.109375 0 
L 9.078125 0 
L 9.078125 54.6875 
L 18.109375 54.6875 
L 18.109375 46.1875 
Q 21.1875 51.21875 25.484375 53.609375 
Q 29.78125 56 35.6875 56 
Q 41.65625 56 45.828125 52.96875 
Q 50 49.953125 52 44.1875 
z
" id="DejaVuSans-6d"/>
      <path d="M 56.203125 29.59375 
L 56.203125 25.203125 
L 14.890625 25.203125 
Q 15.484375 15.921875 20.484375 11.0625 
Q 25.484375 6.203125 34.421875 6.203125 
Q 39.59375 6.203125 44.453125 7.46875 
Q 49.3125 8.734375 54.109375 11.28125 
L 54.109375 2.78125 
Q 49.265625 0.734375 44.1875 -0.34375 
Q 39.109375 -1.421875 33.890625 -1.421875 
Q 20.796875 -1.421875 13.15625 6.1875 
Q 5.515625 13.8125 5.515625 26.8125 
Q 5.515625 40.234375 12.765625 48.109375 
Q 20.015625 56 32.328125 56 
Q 43.359375 56 49.78125 48.890625 
Q 56.203125 41.796875 56.203125 29.59375 
z
M 47.21875 32.234375 
Q 47.125 39.59375 43.09375 43.984375 
Q 39.0625 48.390625 32.421875 48.390625 
Q 24.90625 48.390625 20.390625 44.140625 
Q 15.875 39.890625 15.1875 32.171875 
z
" id="DejaVuSans-65"/>
      <path id="DejaVuSans-20"/>
      <path d="M 44.28125 53.078125 
L 44.28125 44.578125 
Q 40.484375 46.53125 36.375 47.5 
Q 32.28125 48.484375 27.875 48.484375 
Q 21.1875 48.484375 17.84375 46.4375 
Q 14.5 44.390625 14.5 40.28125 
Q 14.5 37.15625 16.890625 35.375 
Q 19.28125 33.59375 26.515625 31.984375 
L 29.59375 31.296875 
Q 39.15625 29.25 43.1875 25.515625 
Q 47.21875 21.78125 47.21875 15.09375 
Q 47.21875 7.46875 41.1875 3.015625 
Q 35.15625 -1.421875 24.609375 -1.421875 
Q 20.21875 -1.421875 15.453125 -0.5625 
Q 10.6875 0.296875 5.421875 2 
L 5.421875 11.28125 
Q 10.40625 8.6875 15.234375 7.390625 
Q 20.0625 6.109375 24.8125 6.109375 
Q 31.15625 6.109375 34.5625 8.28125 
Q 37.984375 10.453125 37.984375 14.40625 
Q 37.984375 18.0625 35.515625 20.015625 
Q 33.0625 21.96875 24.703125 23.78125 
L 21.578125 24.515625 
Q 13.234375 26.265625 9.515625 29.90625 
Q 5.8125 33.546875 5.8125 39.890625 
Q 5.8125 47.609375 11.28125 51.796875 
Q 16.75 56 26.8125 56 
Q 31.78125 56 36.171875 55.265625 
Q 40.578125 54.546875 44.28125 53.078125 
z
" id="DejaVuSans-73"/>
      <path d="M 18.109375 8.203125 
L 18.109375 -20.796875 
L 9.078125 -20.796875 
L 9.078125 54.6875 
L 18.109375 54.6875 
L 18.109375 46.390625 
Q 20.953125 51.265625 25.265625 53.625 
Q 29.59375 56 35.59375 56 
Q 45.5625 56 51.78125 48.09375 
Q 58.015625 40.1875 58.015625 27.296875 
Q 58.015625 14.40625 51.78125 6.484375 
Q 45.5625 -1.421875 35.59375 -1.421875 
Q 29.59375 -1.421875 25.265625 0.953125 
Q 20.953125 3.328125 18.109375 8.203125 
z
M 48.6875 27.296875 
Q 48.6875 37.203125 44.609375 42.84375 
Q 40.53125 48.484375 33.40625 48.484375 
Q 26.265625 48.484375 22.1875 42.84375 
Q 18.109375 37.203125 18.109375 27.296875 
Q 18.109375 17.390625 22.1875 11.75 
Q 26.265625 6.109375 33.40625 6.109375 
Q 40.53125 6.109375 44.609375 11.75 
Q 48.6875 17.390625 48.6875 27.296875 
z
" id="DejaVuSans-70"/>
     </defs>
     <g transform="translate(212.459219 335.860562)scale(0.1 -0.1)">
      <use xlink:href="#DejaVuSans-74"/>
      <use x="39.208984" xlink:href="#DejaVuSans-69"/>
      <use x="66.992188" xlink:href="#DejaVuSans-6d"/>
      <use x="164.404297" xlink:href="#DejaVuSans-65"/>
      <use x="225.927734" xlink:href="#DejaVuSans-20"/>
      <use x="257.714844" xlink:href="#DejaVuSans-73"/>
      <use x="309.814453" xlink:href="#DejaVuSans-74"/>
      <use x="349.023438" xlink:href="#DejaVuSans-65"/>
      <use x="410.546875" xlink:href="#DejaVuSans-70"/>
     </g>
    </g>
   </g>
   <g id="matplotlib.axis_2">
    <g id="ytick_1">
     <g id="line2d_7">
      <defs>
       <path d="M 0 0 
L -3.5 0 
" id="m2712675db8" style="stroke:#000000;stroke-width:0.8;"/>
      </defs>
      <g>
       <use style="stroke:#000000;stroke-width:0.8;" x="57.6" xlink:href="#m2712675db8" y="289.650328"/>
      </g>
     </g>
     <g id="text_8">
      <!-- 0.1 -->
      <defs>
       <path d="M 10.6875 12.40625 
L 21 12.40625 
L 21 0 
L 10.6875 0 
z
" id="DejaVuSans-2e"/>
      </defs>
      <g transform="translate(34.696875 293.449547)scale(0.1 -0.1)">
       <use xlink:href="#DejaVuSans-30"/>
       <use x="63.623047" xlink:href="#DejaVuSans-2e"/>
       <use x="95.410156" xlink:href="#DejaVuSans-31"/>
      </g>
     </g>
    </g>
    <g id="ytick_2">
     <g id="line2d_8">
      <g>
       <use style="stroke:#000000;stroke-width:0.8;" x="57.6" xlink:href="#m2712675db8" y="255.31108"/>
      </g>
     </g>
     <g id="text_9">
      <!-- 0.2 -->
      <g transform="translate(34.696875 259.110299)scale(0.1 -0.1)">
       <use xlink:href="#DejaVuSans-30"/>
       <use x="63.623047" xlink:href="#DejaVuSans-2e"/>
       <use x="95.410156" xlink:href="#DejaVuSans-32"/>
      </g>
     </g>
    </g>
    <g id="ytick_3">
     <g id="line2d_9">
      <g>
       <use style="stroke:#000000;stroke-width:0.8;" x="57.6" xlink:href="#m2712675db8" y="220.971833"/>
      </g>
     </g>
     <g id="text_10">
      <!-- 0.3 -->
      <defs>
       <path d="M 40.578125 39.3125 
Q 47.65625 37.796875 51.625 33 
Q 55.609375 28.21875 55.609375 21.1875 
Q 55.609375 10.40625 48.1875 4.484375 
Q 40.765625 -1.421875 27.09375 -1.421875 
Q 22.515625 -1.421875 17.65625 -0.515625 
Q 12.796875 0.390625 7.625 2.203125 
L 7.625 11.71875 
Q 11.71875 9.328125 16.59375 8.109375 
Q 21.484375 6.890625 26.8125 6.890625 
Q 36.078125 6.890625 40.9375 10.546875 
Q 45.796875 14.203125 45.796875 21.1875 
Q 45.796875 27.640625 41.28125 31.265625 
Q 36.765625 34.90625 28.71875 34.90625 
L 20.21875 34.90625 
L 20.21875 43.015625 
L 29.109375 43.015625 
Q 36.375 43.015625 40.234375 45.921875 
Q 44.09375 48.828125 44.09375 54.296875 
Q 44.09375 59.90625 40.109375 62.90625 
Q 36.140625 65.921875 28.71875 65.921875 
Q 24.65625 65.921875 20.015625 65.03125 
Q 15.375 64.15625 9.8125 62.3125 
L 9.8125 71.09375 
Q 15.4375 72.65625 20.34375 73.4375 
Q 25.25 74.21875 29.59375 74.21875 
Q 40.828125 74.21875 47.359375 69.109375 
Q 53.90625 64.015625 53.90625 55.328125 
Q 53.90625 49.265625 50.4375 45.09375 
Q 46.96875 40.921875 40.578125 39.3125 
z
" id="DejaVuSans-33"/>
      </defs>
      <g transform="translate(34.696875 224.771051)scale(0.1 -0.1)">
       <use xlink:href="#DejaVuSans-30"/>
       <use x="63.623047" xlink:href="#DejaVuSans-2e"/>
       <use x="95.410156" xlink:href="#DejaVuSans-33"/>
      </g>
     </g>
    </g>
    <g id="ytick_4">
     <g id="line2d_10">
      <g>
       <use style="stroke:#000000;stroke-width:0.8;" x="57.6" xlink:href="#m2712675db8" y="186.632585"/>
      </g>
     </g>
     <g id="text_11">
      <!-- 0.4 -->
      <g transform="translate(34.696875 190.431804)scale(0.1 -0.1)">
       <use xlink:href="#DejaVuSans-30"/>
       <use x="63.623047" xlink:href="#DejaVuSans-2e"/>
       <use x="95.410156" xlink:href="#DejaVuSans-34"/>
      </g>
     </g>
    </g>
    <g id="ytick_5">
     <g id="line2d_11">
      <g>
       <use style="stroke:#000000;stroke-width:0.8;" x="57.6" xlink:href="#m2712675db8" y="152.293337"/>
      </g>
     </g>
     <g id="text_12">
      <!-- 0.5 -->
      <defs>
       <path d="M 10.796875 72.90625 
L 49.515625 72.90625 
L 49.515625 64.59375 
L 19.828125 64.59375 
L 19.828125 46.734375 
Q 21.96875 47.46875 24.109375 47.828125 
Q 26.265625 48.1875 28.421875 48.1875 
Q 40.625 48.1875 47.75 41.5 
Q 54.890625 34.8125 54.890625 23.390625 
Q 54.890625 11.625 47.5625 5.09375 
Q 40.234375 -1.421875 26.90625 -1.421875 
Q 22.3125 -1.421875 17.546875 -0.640625 
Q 12.796875 0.140625 7.71875 1.703125 
L 7.71875 11.625 
Q 12.109375 9.234375 16.796875 8.0625 
Q 21.484375 6.890625 26.703125 6.890625 
Q 35.15625 6.890625 40.078125 11.328125 
Q 45.015625 15.765625 45.015625 23.390625 
Q 45.015625 31 40.078125 35.4375 
Q 35.15625 39.890625 26.703125 39.890625 
Q 22.75 39.890625 18.8125 39.015625 
Q 14.890625 38.140625 10.796875 36.28125 
z
" id="DejaVuSans-35"/>
      </defs>
      <g transform="translate(34.696875 156.092556)scale(0.1 -0.1)">
       <use xlink:href="#DejaVuSans-30"/>
       <use x="63.623047" xlink:href="#DejaVuSans-2e"/>
       <use x="95.410156" xlink:href="#DejaVuSans-35"/>
      </g>
     </g>
    </g>
    <g id="ytick_6">
     <g id="line2d_12">
      <g>
       <use style="stroke:#000000;stroke-width:0.8;" x="57.6" xlink:href="#m2712675db8" y="117.954089"/>
      </g>
     </g>
     <g id="text_13">
      <!-- 0.6 -->
      <g transform="translate(34.696875 121.753308)scale(0.1 -0.1)">
       <use xlink:href="#DejaVuSans-30"/>
       <use x="63.623047" xlink:href="#DejaVuSans-2e"/>
       <use x="95.410156" xlink:href="#DejaVuSans-36"/>
      </g>
     </g>
    </g>
    <g id="ytick_7">
     <g id="line2d_13">
      <g>
       <use style="stroke:#000000;stroke-width:0.8;" x="57.6" xlink:href="#m2712675db8" y="83.614842"/>
      </g>
     </g>
     <g id="text_14">
      <!-- 0.7 -->
      <defs>
       <path d="M 8.203125 72.90625 
L 55.078125 72.90625 
L 55.078125 68.703125 
L 28.609375 0 
L 18.3125 0 
L 43.21875 64.59375 
L 8.203125 64.59375 
z
" id="DejaVuSans-37"/>
      </defs>
      <g transform="translate(34.696875 87.41406)scale(0.1 -0.1)">
       <use xlink:href="#DejaVuSans-30"/>
       <use x="63.623047" xlink:href="#DejaVuSans-2e"/>
       <use x="95.410156" xlink:href="#DejaVuSans-37"/>
      </g>
     </g>
    </g>
    <g id="ytick_8">
     <g id="line2d_14">
      <g>
       <use style="stroke:#000000;stroke-width:0.8;" x="57.6" xlink:href="#m2712675db8" y="49.275594"/>
      </g>
     </g>
     <g id="text_15">
      <!-- 0.8 -->
      <g transform="translate(34.696875 53.074813)scale(0.1 -0.1)">
       <use xlink:href="#DejaVuSans-30"/>
       <use x="63.623047" xlink:href="#DejaVuSans-2e"/>
       <use x="95.410156" xlink:href="#DejaVuSans-38"/>
      </g>
     </g>
    </g>
    <g id="text_16">
     <!-- optimal -->
     <defs>
      <path d="M 30.609375 48.390625 
Q 23.390625 48.390625 19.1875 42.75 
Q 14.984375 37.109375 14.984375 27.296875 
Q 14.984375 17.484375 19.15625 11.84375 
Q 23.34375 6.203125 30.609375 6.203125 
Q 37.796875 6.203125 41.984375 11.859375 
Q 46.1875 17.53125 46.1875 27.296875 
Q 46.1875 37.015625 41.984375 42.703125 
Q 37.796875 48.390625 30.609375 48.390625 
z
M 30.609375 56 
Q 42.328125 56 49.015625 48.375 
Q 55.71875 40.765625 55.71875 27.296875 
Q 55.71875 13.875 49.015625 6.21875 
Q 42.328125 -1.421875 30.609375 -1.421875 
Q 18.84375 -1.421875 12.171875 6.21875 
Q 5.515625 13.875 5.515625 27.296875 
Q 5.515625 40.765625 12.171875 48.375 
Q 18.84375 56 30.609375 56 
z
" id="DejaVuSans-6f"/>
      <path d="M 34.28125 27.484375 
Q 23.390625 27.484375 19.1875 25 
Q 14.984375 22.515625 14.984375 16.5 
Q 14.984375 11.71875 18.140625 8.90625 
Q 21.296875 6.109375 26.703125 6.109375 
Q 34.1875 6.109375 38.703125 11.40625 
Q 43.21875 16.703125 43.21875 25.484375 
L 43.21875 27.484375 
z
M 52.203125 31.203125 
L 52.203125 0 
L 43.21875 0 
L 43.21875 8.296875 
Q 40.140625 3.328125 35.546875 0.953125 
Q 30.953125 -1.421875 24.3125 -1.421875 
Q 15.921875 -1.421875 10.953125 3.296875 
Q 6 8.015625 6 15.921875 
Q 6 25.140625 12.171875 29.828125 
Q 18.359375 34.515625 30.609375 34.515625 
L 43.21875 34.515625 
L 43.21875 35.40625 
Q 43.21875 41.609375 39.140625 45 
Q 35.0625 48.390625 27.6875 48.390625 
Q 23 48.390625 18.546875 47.265625 
Q 14.109375 46.140625 10.015625 43.890625 
L 10.015625 52.203125 
Q 14.9375 54.109375 19.578125 55.046875 
Q 24.21875 56 28.609375 56 
Q 40.484375 56 46.34375 49.84375 
Q 52.203125 43.703125 52.203125 31.203125 
z
" id="DejaVuSans-61"/>
      <path d="M 9.421875 75.984375 
L 18.40625 75.984375 
L 18.40625 0 
L 9.421875 0 
z
" id="DejaVuSans-6c"/>
     </defs>
     <g transform="translate(28.617187 193.43425)rotate(-90)scale(0.1 -0.1)">
      <use xlink:href="#DejaVuSans-6f"/>
      <use x="61.181641" xlink:href="#DejaVuSans-70"/>
      <use x="124.658203" xlink:href="#DejaVuSans-74"/>
      <use x="163.867188" xlink:href="#DejaVuSans-69"/>
      <use x="191.650391" xlink:href="#DejaVuSans-6d"/>
      <use x="289.0625" xlink:href="#DejaVuSans-61"/>
      <use x="350.341797" xlink:href="#DejaVuSans-6c"/>
     </g>
    </g>
   </g>
   <g id="line2d_15">
    <path clip-path="url(#pea8aeb7732)" d="M 73.832727 291.882379 
L 74.157707 287.418277 
L 74.482686 295.488 
L 74.807666 289.135239 
L 75.132645 287.246581 
L 75.457625 287.761669 
L 75.782604 286.903188 
L 76.107584 289.306935 
L 76.432563 284.156048 
L 76.757543 286.559796 
L 77.082523 283.812656 
L 77.407502 286.731492 
L 77.732482 281.752301 
L 78.057461 280.89382 
L 78.382441 283.297567 
L 78.70742 281.065516 
L 79.0324 283.125871 
L 79.357379 281.065516 
L 79.682359 275.742933 
L 80.007338 283.469263 
L 80.332318 278.833465 
L 80.657297 277.974984 
L 80.982277 277.974984 
L 81.307256 272.480704 
L 81.632236 273.682578 
L 81.957215 273.167489 
L 82.282195 276.429718 
L 82.607174 269.046779 
L 82.932154 273.339185 
L 83.257133 270.592045 
L 83.582113 266.471336 
L 83.907093 265.784551 
L 84.232072 269.046779 
L 84.557052 267.844906 
L 84.882031 258.745005 
L 85.207011 261.320449 
L 85.53199 255.482776 
L 85.85697 254.624295 
L 86.181949 256.341258 
L 86.506929 254.109207 
L 86.831908 255.31108 
L 87.156888 245.524395 
L 87.481867 245.352698 
L 87.806847 250.675282 
L 88.131826 245.352698 
L 88.456806 246.21118 
L 88.781785 243.635736 
L 89.106765 245.696091 
L 89.431744 233.84905 
L 89.756724 232.647177 
L 90.081704 232.132088 
L 90.406683 235.394317 
L 90.731663 228.183075 
L 91.056642 224.062365 
L 91.381622 225.607631 
L 91.706601 222.00201 
L 92.031581 220.62844 
L 92.35656 215.305857 
L 92.68154 216.679427 
L 93.656478 209.639881 
L 94.306437 198.823018 
L 94.631417 201.741854 
L 94.956396 198.823018 
L 95.281376 192.470257 
L 95.606355 193.328738 
L 95.931335 195.904182 
L 96.581294 184.400534 
L 96.906274 182.340179 
L 97.231253 184.400534 
L 97.556233 184.915622 
L 97.881212 175.472329 
L 98.206192 173.068582 
L 98.531171 174.613848 
L 99.18113 172.381797 
L 99.50611 167.917695 
L 99.831089 167.23091 
L 100.156069 162.938504 
L 100.481048 155.898958 
L 101.131007 160.534757 
L 101.455987 151.778248 
L 101.780966 153.323515 
L 102.105946 153.151818 
L 102.430925 154.868781 
L 102.755905 139.416119 
L 103.080885 140.446297 
L 103.405864 144.910399 
L 103.730844 137.184068 
L 104.055823 140.961385 
L 104.380803 134.265232 
L 104.705782 140.102904 
L 105.030762 130.316219 
L 105.355741 134.265232 
L 105.680721 133.235055 
L 106.0057 126.023813 
L 106.33068 127.225686 
L 106.655659 129.80113 
L 106.980639 122.93328 
L 107.305618 122.589888 
L 107.630598 124.650243 
L 107.955577 119.671052 
L 108.280557 121.731407 
L 108.605536 116.58052 
L 108.930516 119.499356 
L 109.580475 113.146595 
L 109.905455 110.914544 
L 110.230434 110.227759 
L 110.555414 113.83338 
L 110.880393 102.673124 
L 111.205373 110.571151 
L 111.530352 104.905175 
L 111.855332 104.561783 
L 112.180311 107.308923 
L 112.83027 97.007148 
L 113.15525 99.067503 
L 113.480229 99.410896 
L 113.805209 98.552414 
L 114.130188 98.380718 
L 114.455168 94.260009 
L 114.780147 96.320363 
L 115.105127 95.461882 
L 115.430106 95.461882 
L 115.755086 94.088312 
L 116.080066 90.139299 
L 116.730025 92.027957 
L 117.055004 89.280818 
L 117.379984 93.058135 
L 117.704963 86.87707 
L 118.029943 89.452514 
L 118.354922 88.25064 
L 118.679902 88.765729 
L 119.329861 84.816715 
L 119.65484 88.25064 
L 119.97982 83.614842 
L 120.304799 82.412968 
L 120.629779 82.584664 
L 120.954758 83.958234 
L 121.929697 79.837524 
L 122.254676 80.524309 
L 122.904636 79.322436 
L 123.229615 76.231903 
L 123.554595 78.292258 
L 123.879574 76.575296 
L 124.204554 81.211094 
L 124.854513 74.514941 
L 125.179492 76.060207 
L 125.504472 75.545119 
L 125.829451 71.939498 
L 126.154431 70.90932 
L 126.47941 73.65646 
L 126.80439 72.969675 
L 127.129369 73.484764 
L 127.454349 71.424409 
L 127.779328 76.575296 
L 128.104308 70.394231 
L 128.429287 70.90932 
L 128.754267 69.192358 
L 129.079247 71.424409 
L 129.404226 70.90932 
L 129.729206 69.879143 
L 130.054185 71.939498 
L 130.704144 68.677269 
L 131.029124 69.707446 
L 131.354103 66.616914 
L 131.679083 65.586737 
L 132.004062 68.16218 
L 132.329042 68.505573 
L 132.654021 68.677269 
L 132.979001 65.41504 
L 133.30398 66.445218 
L 133.62896 64.556559 
L 133.953939 66.445218 
L 134.278919 66.960307 
L 134.928878 64.384863 
L 135.578837 68.333877 
L 135.903817 65.586737 
L 136.228796 66.273522 
L 136.553776 64.213167 
L 136.878755 64.213167 
L 137.203735 66.273522 
L 137.528714 65.41504 
L 137.853694 65.41504 
L 138.503653 61.981116 
L 138.828632 62.839597 
L 139.478591 62.839597 
L 139.803571 63.869774 
L 140.12855 62.667901 
L 140.45353 62.496204 
L 140.778509 63.011293 
L 141.103489 62.496204 
L 141.428468 63.526382 
L 141.753448 60.092457 
L 142.078428 64.384863 
L 142.403407 63.526382 
L 142.728387 61.637723 
L 143.053366 61.809419 
L 143.703325 60.092457 
L 144.028305 61.637723 
L 144.353284 62.324508 
L 144.678264 60.607546 
L 145.003243 61.466027 
L 145.328223 60.43585 
L 145.653202 60.264153 
L 145.978182 61.466027 
L 146.303161 60.264153 
L 146.628141 59.749065 
L 146.95312 60.607546 
L 147.2781 58.890583 
L 147.603079 60.092457 
L 148.253038 60.092457 
L 148.578018 59.749065 
L 148.902998 61.637723 
L 149.227977 60.607546 
L 149.552957 61.466027 
L 149.877936 61.466027 
L 150.202916 60.950938 
L 150.527895 59.577368 
L 150.852875 58.890583 
L 151.177854 58.547191 
L 151.827813 58.890583 
L 152.477772 60.092457 
L 152.802752 60.092457 
L 153.127731 58.375495 
L 153.452711 57.860406 
L 153.77769 60.264153 
L 154.10267 57.68871 
L 154.427649 57.517013 
L 154.752629 58.375495 
L 155.077609 58.718887 
L 155.402588 58.890583 
L 155.727568 60.607546 
L 156.052547 60.264153 
L 156.377527 57.517013 
L 156.702506 58.032102 
L 157.027486 58.890583 
L 157.352465 58.718887 
L 157.677445 57.517013 
L 158.002424 57.517013 
L 158.327404 57.173621 
L 158.977363 58.375495 
L 159.302342 57.345317 
L 159.627322 59.405672 
L 159.952301 57.345317 
L 160.60226 58.375495 
L 160.92724 57.517013 
L 161.252219 57.173621 
L 161.577199 57.001925 
L 161.902179 55.628355 
L 162.227158 59.06228 
L 162.552138 56.658532 
L 163.202097 57.517013 
L 163.527076 57.860406 
L 163.852056 57.001925 
L 164.177035 58.547191 
L 164.502015 57.001925 
L 164.826994 57.345317 
L 165.151974 57.345317 
L 165.476953 56.830229 
L 165.801933 57.345317 
L 166.126912 56.830229 
L 166.451892 58.547191 
L 166.776871 57.345317 
L 167.101851 57.68871 
L 167.42683 57.517013 
L 167.75181 57.68871 
L 168.07679 56.658532 
L 168.401769 57.345317 
L 168.726749 57.001925 
L 169.051728 57.173621 
L 169.376708 57.001925 
L 169.701687 56.143444 
L 170.026667 57.001925 
L 170.676626 56.31514 
L 171.001605 57.001925 
L 171.326585 56.143444 
L 171.651564 55.971747 
L 171.976544 57.517013 
L 172.301523 56.143444 
L 172.626503 57.517013 
L 172.951482 57.173621 
L 173.276462 55.456659 
L 173.601441 56.486836 
L 173.926421 57.001925 
L 174.2514 55.971747 
L 174.57638 55.971747 
L 174.90136 56.486836 
L 175.551319 55.284962 
L 175.876298 57.173621 
L 176.201278 56.486836 
L 176.526257 55.456659 
L 176.851237 56.143444 
L 177.176216 55.628355 
L 177.501196 57.001925 
L 177.826175 56.31514 
L 178.151155 56.31514 
L 178.476134 56.830229 
L 178.801114 56.143444 
L 179.126093 55.971747 
L 179.451073 55.113266 
L 179.776052 56.486836 
L 180.101032 56.31514 
L 180.426011 55.800051 
L 180.750991 56.143444 
L 181.075971 55.800051 
L 181.40095 56.830229 
L 181.72593 56.31514 
L 182.050909 55.456659 
L 182.700868 55.113266 
L 183.025848 55.456659 
L 183.350827 55.113266 
L 184.000786 55.971747 
L 184.325766 55.628355 
L 184.650745 55.456659 
L 184.975725 55.113266 
L 185.625684 55.456659 
L 185.950663 55.971747 
L 186.275643 55.628355 
L 187.250581 56.143444 
L 187.575561 55.113266 
L 187.900541 55.800051 
L 188.22552 55.113266 
L 188.5505 54.94157 
L 188.875479 55.628355 
L 189.200459 55.628355 
L 189.525438 55.971747 
L 189.850418 55.628355 
L 190.175397 56.143444 
L 190.500377 54.769874 
L 190.825356 55.456659 
L 191.150336 55.113266 
L 191.475315 55.284962 
L 191.800295 55.284962 
L 192.125274 55.971747 
L 192.450254 55.628355 
L 192.775233 54.083089 
L 193.100213 55.628355 
L 193.425192 54.769874 
L 193.750172 55.628355 
L 194.075152 55.456659 
L 194.400131 54.94157 
L 194.725111 54.769874 
L 195.05009 55.284962 
L 195.37507 55.284962 
L 195.700049 54.769874 
L 196.025029 55.284962 
L 196.350008 54.426481 
L 196.674988 55.284962 
L 196.999967 55.284962 
L 197.324947 55.113266 
L 197.649926 55.971747 
L 197.974906 54.769874 
L 198.299885 54.598177 
L 198.624865 54.769874 
L 198.949844 54.426481 
L 199.274824 54.769874 
L 199.599803 54.426481 
L 199.924783 55.113266 
L 200.249762 54.769874 
L 200.574742 55.456659 
L 200.899722 54.598177 
L 201.224701 54.426481 
L 201.549681 55.113266 
L 201.87466 55.284962 
L 202.19964 55.113266 
L 202.524619 54.083089 
L 202.849599 54.426481 
L 203.174578 55.284962 
L 203.499558 54.598177 
L 203.824537 54.94157 
L 204.149517 54.769874 
L 204.474496 55.456659 
L 204.799476 55.113266 
L 205.124455 55.284962 
L 205.449435 54.94157 
L 205.774414 54.769874 
L 206.099394 54.083089 
L 206.424373 54.94157 
L 206.749353 54.426481 
L 207.074333 54.426481 
L 207.399312 54.94157 
L 207.724292 54.769874 
L 208.049271 54.254785 
L 208.374251 54.598177 
L 208.69923 54.598177 
L 209.02421 54.94157 
L 209.349189 54.598177 
L 209.674169 55.113266 
L 209.999148 55.284962 
L 210.324128 55.113266 
L 210.649107 54.769874 
L 210.974087 54.598177 
L 211.299066 54.94157 
L 211.624046 54.426481 
L 211.949025 54.769874 
L 212.274005 54.598177 
L 212.598984 54.94157 
L 212.923964 54.769874 
L 213.248943 55.284962 
L 213.573923 54.254785 
L 213.898903 54.598177 
L 214.223882 54.769874 
L 214.548862 54.598177 
L 214.873841 54.598177 
L 215.198821 54.769874 
L 215.5238 54.598177 
L 216.173759 54.598177 
L 216.498739 54.426481 
L 216.823718 54.598177 
L 217.148698 54.598177 
L 217.473677 55.113266 
L 217.798657 54.254785 
L 218.773595 54.769874 
L 219.098575 55.113266 
L 219.423554 54.083089 
L 219.748534 54.598177 
L 220.073514 54.769874 
L 220.398493 54.254785 
L 221.048452 55.113266 
L 221.373432 54.598177 
L 221.698411 54.769874 
L 222.023391 54.426481 
L 222.34837 54.426481 
L 222.67335 54.598177 
L 222.998329 54.94157 
L 223.323309 54.598177 
L 223.648288 54.426481 
L 223.973268 54.94157 
L 224.298247 54.598177 
L 224.623227 54.426481 
L 224.948206 54.598177 
L 225.273186 55.113266 
L 225.923145 54.426481 
L 226.248124 54.598177 
L 226.573104 54.426481 
L 226.898084 54.426481 
L 227.223063 54.254785 
L 227.548043 54.598177 
L 227.873022 54.598177 
L 228.198002 54.769874 
L 228.522981 54.426481 
L 228.847961 54.254785 
L 229.17294 54.94157 
L 229.49792 54.598177 
L 229.822899 55.456659 
L 230.147879 54.426481 
L 230.472858 54.769874 
L 230.797838 54.426481 
L 231.122817 53.911392 
L 231.447797 54.426481 
L 231.772776 54.426481 
L 232.097756 54.254785 
L 232.422735 54.769874 
L 232.747715 54.254785 
L 233.072695 54.426481 
L 233.397674 54.254785 
L 233.722654 54.769874 
L 234.372613 54.426481 
L 234.697592 54.598177 
L 235.022572 54.254785 
L 235.347551 54.769874 
L 235.672531 53.568 
L 235.99751 54.426481 
L 236.32249 54.426481 
L 236.647469 54.254785 
L 236.972449 54.769874 
L 237.297428 54.426481 
L 237.622408 55.113266 
L 237.947387 54.769874 
L 238.272367 54.598177 
L 238.597346 54.254785 
L 238.922326 54.426481 
L 239.247305 54.254785 
L 239.572285 54.426481 
L 239.897265 54.769874 
L 240.222244 54.426481 
L 240.547224 54.426481 
L 240.872203 54.254785 
L 241.522162 54.94157 
L 241.847142 54.598177 
L 242.172121 54.598177 
L 242.497101 54.083089 
L 242.82208 54.598177 
L 243.14706 54.598177 
L 243.472039 54.083089 
L 243.797019 54.254785 
L 244.121998 54.254785 
L 244.446978 54.769874 
L 244.771957 54.598177 
L 245.421916 54.598177 
L 245.746896 54.254785 
L 246.071876 54.254785 
L 246.396855 54.426481 
L 246.721835 54.254785 
L 247.046814 54.769874 
L 247.371794 54.426481 
L 248.671712 54.426481 
L 248.996691 54.598177 
L 249.321671 54.598177 
L 249.64665 54.769874 
L 250.296609 54.426481 
L 250.621589 54.598177 
L 251.271548 54.254785 
L 251.596527 54.598177 
L 252.246486 54.254785 
L 252.571466 53.911392 
L 252.896446 54.598177 
L 253.221425 54.254785 
L 253.546405 54.598177 
L 253.871384 54.598177 
L 254.196364 54.254785 
L 254.521343 54.254785 
L 254.846323 54.598177 
L 255.171302 54.254785 
L 255.496282 54.426481 
L 255.821261 54.426481 
L 256.146241 54.598177 
L 256.47122 54.426481 
L 256.7962 54.426481 
L 257.121179 54.598177 
L 257.446159 54.083089 
L 257.771138 54.254785 
L 258.096118 54.083089 
L 258.746077 54.769874 
L 259.071057 54.769874 
L 259.396036 54.254785 
L 260.045995 54.598177 
L 260.695954 53.911392 
L 261.670893 54.426481 
L 261.995872 54.426481 
L 262.320852 54.254785 
L 262.645831 54.254785 
L 262.970811 54.426481 
L 263.29579 54.426481 
L 263.62077 54.598177 
L 263.945749 54.426481 
L 264.270729 54.426481 
L 264.595708 54.598177 
L 264.920688 54.254785 
L 265.245667 54.769874 
L 265.570647 54.083089 
L 265.895627 54.254785 
L 266.870565 54.254785 
L 267.195545 54.426481 
L 267.520524 54.426481 
L 267.845504 54.769874 
L 268.820442 54.254785 
L 269.470401 54.254785 
L 269.795381 53.911392 
L 270.44534 54.598177 
L 270.770319 54.083089 
L 271.095299 54.426481 
L 271.420278 54.426481 
L 271.745258 54.254785 
L 272.070238 53.911392 
L 272.395217 54.598177 
L 272.720197 54.254785 
L 273.045176 54.426481 
L 274.020115 54.426481 
L 274.345094 54.083089 
L 274.995053 54.426481 
L 275.320033 54.254785 
L 275.645012 54.426481 
L 275.969992 54.083089 
L 276.294971 54.254785 
L 276.619951 54.254785 
L 276.94493 54.426481 
L 277.26991 54.254785 
L 277.594889 54.254785 
L 277.919869 54.426481 
L 278.244848 54.426481 
L 278.569828 54.254785 
L 278.894808 53.911392 
L 279.219787 54.426481 
L 279.869746 54.426481 
L 280.194726 54.083089 
L 281.169664 54.083089 
L 281.494644 53.911392 
L 282.144603 54.254785 
L 282.794562 54.254785 
L 283.119541 54.083089 
L 283.444521 54.598177 
L 283.7695 54.083089 
L 284.09448 54.426481 
L 284.419459 54.426481 
L 284.744439 54.598177 
L 285.069419 54.254785 
L 286.369337 54.254785 
L 286.694316 54.083089 
L 287.019296 54.254785 
L 287.344275 54.083089 
L 287.994234 54.083089 
L 288.319214 54.254785 
L 288.644193 53.739696 
L 288.969173 54.254785 
L 289.294152 54.254785 
L 289.619132 54.083089 
L 289.944111 54.083089 
L 290.269091 54.426481 
L 290.59407 53.911392 
L 290.91905 53.911392 
L 291.244029 54.426481 
L 291.569009 54.426481 
L 291.893989 54.254785 
L 292.543948 54.254785 
L 292.868927 54.083089 
L 293.193907 54.254785 
L 293.518886 54.254785 
L 293.843866 54.083089 
L 294.168845 54.254785 
L 294.493825 54.083089 
L 294.818804 54.426481 
L 295.143784 54.254785 
L 296.118722 54.254785 
L 296.443702 53.911392 
L 297.093661 54.254785 
L 297.41864 53.739696 
L 297.74362 54.254785 
L 298.393579 54.254785 
L 298.718559 54.083089 
L 299.043538 54.083089 
L 299.368518 54.254785 
L 299.693497 54.083089 
L 300.018477 54.083089 
L 300.343456 54.254785 
L 300.668436 54.254785 
L 301.318395 53.911392 
L 301.643374 53.911392 
L 301.968354 54.426481 
L 302.293333 54.083089 
L 302.618313 53.911392 
L 302.943292 54.426481 
L 303.268272 53.911392 
L 303.593251 54.083089 
L 303.918231 54.426481 
L 304.24321 54.083089 
L 304.56819 54.254785 
L 304.89317 53.911392 
L 305.218149 53.911392 
L 305.543129 54.083089 
L 305.868108 53.911392 
L 306.193088 54.083089 
L 306.518067 53.911392 
L 307.168026 54.254785 
L 307.493006 54.083089 
L 307.817985 54.083089 
L 308.142965 54.254785 
L 308.467944 53.911392 
L 308.792924 54.254785 
L 309.117903 54.083089 
L 309.442883 54.254785 
L 309.767862 53.911392 
L 310.417821 53.911392 
L 310.742801 54.083089 
L 311.39276 53.739696 
L 311.71774 54.083089 
L 312.042719 53.739696 
L 312.367699 53.911392 
L 312.692678 54.254785 
L 313.017658 54.083089 
L 314.317576 54.083089 
L 314.642555 54.254785 
L 314.967535 53.911392 
L 315.617494 54.254785 
L 315.942473 53.911392 
L 316.267453 54.254785 
L 316.592432 53.911392 
L 317.242391 54.254785 
L 317.892351 54.254785 
L 318.21733 53.911392 
L 318.54231 53.911392 
L 318.867289 54.254785 
L 319.192269 54.083089 
L 320.817166 54.083089 
L 321.142146 53.911392 
L 321.467125 54.083089 
L 321.792105 53.739696 
L 322.442064 54.083089 
L 322.767043 53.911392 
L 323.092023 54.083089 
L 324.716921 54.083089 
L 325.0419 53.911392 
L 325.36688 54.083089 
L 325.691859 54.083089 
L 326.016839 53.911392 
L 326.341818 54.083089 
L 326.991777 54.083089 
L 327.316757 53.911392 
L 327.641736 53.911392 
L 327.966716 53.739696 
L 328.291695 54.083089 
L 328.616675 54.083089 
L 328.941654 54.254785 
L 329.266634 53.911392 
L 329.591613 54.083089 
L 330.566552 54.083089 
L 330.891532 54.254785 
L 331.216511 54.254785 
L 331.541491 53.911392 
L 332.19145 54.254785 
L 332.516429 54.083089 
L 332.841409 54.083089 
L 333.166388 53.911392 
L 333.491368 54.083089 
L 333.816347 54.083089 
L 334.141327 53.911392 
L 334.466306 54.083089 
L 335.766224 54.083089 
L 336.416183 53.739696 
L 336.741163 54.083089 
L 337.066143 53.911392 
L 337.391122 54.083089 
L 337.716102 53.911392 
L 338.041081 54.083089 
L 340.965897 54.083089 
L 341.290876 53.911392 
L 341.615856 54.083089 
L 341.940835 54.083089 
L 342.265815 53.911392 
L 342.590794 53.911392 
L 342.915774 54.083089 
L 343.565733 54.083089 
L 343.890713 53.739696 
L 344.215692 54.083089 
L 344.540672 54.254785 
L 344.865651 54.083089 
L 345.190631 54.083089 
L 345.51561 53.568 
L 345.84059 54.083089 
L 346.165569 54.083089 
L 346.490549 53.911392 
L 346.815528 54.083089 
L 348.440426 54.083089 
L 348.765405 53.911392 
L 349.090385 54.083089 
L 349.415364 54.083089 
L 349.740344 54.254785 
L 350.390303 53.911392 
L 351.040262 53.911392 
L 351.365242 53.739696 
L 351.690221 54.083089 
L 352.34018 54.083089 
L 352.66516 53.911392 
L 352.990139 54.083089 
L 353.315119 53.911392 
L 353.640098 54.083089 
L 353.965078 53.911392 
L 354.290057 53.911392 
L 354.615037 54.083089 
L 354.940016 54.083089 
L 355.264996 53.911392 
L 355.589975 53.911392 
L 355.914955 54.083089 
L 356.239934 54.083089 
L 356.889894 53.739696 
L 357.214873 54.083089 
L 357.539853 54.083089 
L 357.864832 53.911392 
L 358.514791 53.911392 
L 358.839771 54.083089 
L 359.16475 53.911392 
L 359.48973 54.083089 
L 359.814709 53.911392 
L 360.139689 53.911392 
L 360.789648 54.254785 
L 361.764586 53.739696 
L 362.089566 53.911392 
L 362.739525 53.911392 
L 363.064505 54.083089 
L 363.714464 53.739696 
L 364.039443 54.083089 
L 364.364423 53.911392 
L 364.689402 54.083089 
L 367.614218 54.083089 
L 367.939197 53.911392 
L 368.264177 54.083089 
L 368.589156 54.083089 
L 368.914136 53.911392 
L 369.239115 54.083089 
L 369.564095 53.911392 
L 369.889075 54.083089 
L 370.214054 53.911392 
L 370.539034 54.083089 
L 371.838952 54.083089 
L 372.163931 53.911392 
L 372.488911 54.083089 
L 373.463849 54.083089 
L 373.788829 53.911392 
L 374.113808 54.083089 
L 374.438788 53.911392 
L 374.763767 54.083089 
L 375.088747 53.911392 
L 375.413726 54.083089 
L 378.663522 54.083089 
L 378.988501 53.739696 
L 379.313481 54.083089 
L 379.63846 54.083089 
L 379.96344 53.911392 
L 380.288419 54.083089 
L 380.938378 54.083089 
L 381.263358 53.911392 
L 381.913317 53.911392 
L 382.238296 54.083089 
L 383.863194 54.083089 
L 384.188174 53.911392 
L 384.513153 54.083089 
L 385.488092 54.083089 
L 385.813071 53.911392 
L 386.138051 54.083089 
L 386.78801 54.083089 
L 387.112989 53.911392 
L 387.437969 54.083089 
L 389.062867 54.083089 
L 389.387846 53.911392 
L 389.712826 54.083089 
L 392.312662 54.083089 
L 392.637641 53.911392 
L 392.962621 54.083089 
L 393.2876 53.911392 
L 393.61258 53.911392 
L 393.937559 54.083089 
L 394.912498 54.083089 
L 395.237477 53.911392 
L 395.562457 53.911392 
L 395.887437 54.083089 
L 396.212416 54.083089 
L 396.537396 53.911392 
L 396.862375 54.083089 
L 397.837314 54.083089 
L 398.162293 53.911392 
L 398.487273 54.083089 
L 398.487273 54.083089 
" style="fill:none;stroke:#ff0000;stroke-linecap:square;stroke-width:0.6;"/>
   </g>
   <g id="line2d_16">
    <path clip-path="url(#pea8aeb7732)" d="M 73.832727 292.054075 
L 74.157707 295.144608 
L 74.482686 286.044707 
L 74.807666 287.418277 
L 75.132645 283.984352 
L 75.457625 282.954175 
L 75.782604 279.176857 
L 76.107584 273.854274 
L 76.432563 273.167489 
L 76.757543 269.561868 
L 77.082523 262.694018 
L 78.057461 249.988497 
L 78.382441 240.545204 
L 78.70742 237.96976 
L 79.0324 227.49629 
L 79.357379 224.234061 
L 80.007338 214.790768 
L 80.332318 207.40783 
L 80.657297 204.317297 
L 80.982277 202.428639 
L 81.307256 194.358916 
L 81.957215 184.400534 
L 82.282195 186.460889 
L 82.607174 182.168483 
L 83.257133 171.008227 
L 83.582113 173.411974 
L 84.232072 163.453593 
L 84.557052 159.504579 
L 84.882031 159.676275 
L 85.207011 158.131009 
L 85.85697 151.26316 
L 86.506929 149.717894 
L 86.831908 146.970754 
L 87.156888 148.344324 
L 87.481867 145.76888 
L 87.806847 144.567006 
L 88.131826 141.304778 
L 88.456806 142.506652 
L 88.781785 140.789689 
L 89.106765 136.153891 
L 89.756724 138.901031 
L 90.081704 137.012372 
L 90.406683 138.385942 
L 90.731663 135.982194 
L 92.031581 130.144522 
L 92.35656 131.346396 
L 93.331499 128.770952 
L 93.656478 129.286041 
L 93.981458 128.770952 
L 94.306437 130.144522 
L 94.631417 126.195509 
L 94.956396 129.114345 
L 95.281376 127.397383 
L 95.606355 126.710598 
L 95.931335 126.710598 
L 96.256314 126.367205 
L 96.581294 126.538901 
L 96.906274 127.569079 
L 97.231253 124.135154 
L 97.556233 125.508724 
L 98.206192 125.508724 
L 98.531171 124.478546 
L 98.856151 125.337028 
L 99.18113 124.993635 
L 99.50611 124.478546 
L 99.831089 124.478546 
L 100.156069 123.620065 
L 100.481048 123.104977 
L 100.806028 123.963458 
L 101.455987 123.963458 
L 101.780966 123.791762 
L 102.105946 123.448369 
L 103.080885 122.93328 
L 103.405864 122.93328 
L 103.730844 122.589888 
L 104.055823 122.589888 
L 104.380803 122.246495 
L 104.705782 123.276673 
L 105.030762 121.731407 
L 105.355741 122.246495 
L 105.680721 121.903103 
L 106.0057 122.074799 
L 106.33068 121.903103 
L 106.655659 121.903103 
L 106.980639 121.388014 
L 107.305618 121.216318 
L 107.630598 121.731407 
L 107.955577 121.388014 
L 108.605536 122.246495 
L 108.930516 121.388014 
L 109.255495 121.55971 
L 109.905455 121.216318 
L 110.230434 120.701229 
L 110.555414 120.872925 
L 110.880393 121.388014 
L 111.205373 121.216318 
L 111.530352 120.872925 
L 111.855332 121.044622 
L 112.180311 120.872925 
L 112.83027 120.872925 
L 113.15525 121.216318 
L 113.480229 121.216318 
L 113.805209 120.701229 
L 114.130188 120.529533 
L 114.455168 120.529533 
L 114.780147 120.186141 
L 115.105127 120.872925 
L 115.430106 120.186141 
L 115.755086 121.044622 
L 116.080066 120.529533 
L 116.405045 121.044622 
L 116.730025 120.529533 
L 117.055004 120.357837 
L 117.379984 120.701229 
L 117.704963 120.186141 
L 118.029943 120.529533 
L 118.354922 120.014444 
L 118.679902 119.842748 
L 119.004881 119.499356 
L 119.329861 119.842748 
L 119.97982 120.186141 
L 120.304799 120.529533 
L 120.629779 120.186141 
L 121.279738 119.842748 
L 121.604717 120.357837 
L 121.929697 120.186141 
L 122.254676 121.044622 
L 122.579656 119.671052 
L 122.904636 119.671052 
L 123.229615 119.327659 
L 123.554595 119.499356 
L 123.879574 119.842748 
L 124.204554 119.671052 
L 124.529533 119.842748 
L 124.854513 120.186141 
L 125.179492 119.671052 
L 125.829451 119.671052 
L 126.154431 119.499356 
L 126.47941 119.499356 
L 126.80439 118.812571 
L 127.129369 119.155963 
L 128.104308 119.671052 
L 128.429287 120.014444 
L 129.079247 118.984267 
L 129.404226 119.155963 
L 129.729206 119.499356 
L 130.054185 119.499356 
L 130.379165 118.984267 
L 131.029124 119.671052 
L 131.354103 118.812571 
L 131.679083 118.984267 
L 132.004062 119.327659 
L 132.329042 119.155963 
L 132.654021 119.499356 
L 132.979001 119.155963 
L 133.30398 119.671052 
L 133.62896 119.155963 
L 133.953939 118.984267 
L 134.278919 118.984267 
L 134.603898 119.499356 
L 134.928878 118.984267 
L 135.253857 118.984267 
L 135.578837 119.327659 
L 135.903817 119.327659 
L 136.228796 118.984267 
L 136.553776 119.327659 
L 136.878755 119.327659 
L 137.528714 118.640874 
L 137.853694 119.499356 
L 138.178673 119.327659 
L 138.503653 118.984267 
L 138.828632 118.812571 
L 139.153612 118.984267 
L 139.478591 118.984267 
L 139.803571 118.297482 
L 140.12855 118.984267 
L 141.103489 118.984267 
L 141.428468 118.812571 
L 141.753448 118.469178 
L 142.078428 118.984267 
L 142.403407 118.984267 
L 142.728387 118.469178 
L 143.053366 119.155963 
L 143.378346 118.640874 
L 143.703325 118.812571 
L 144.028305 118.469178 
L 144.353284 118.812571 
L 144.678264 118.469178 
L 145.003243 118.640874 
L 145.328223 118.469178 
L 145.653202 118.812571 
L 145.978182 118.469178 
L 146.303161 118.812571 
L 146.628141 118.297482 
L 146.95312 118.640874 
L 147.2781 118.297482 
L 147.603079 118.469178 
L 147.928059 118.469178 
L 148.253038 118.640874 
L 148.902998 118.297482 
L 149.227977 118.469178 
L 149.877936 118.469178 
L 150.202916 118.297482 
L 151.177854 118.297482 
L 151.502834 118.640874 
L 151.827813 118.297482 
L 152.152793 118.297482 
L 152.477772 118.469178 
L 152.802752 118.469178 
L 153.127731 117.954089 
L 153.452711 118.469178 
L 153.77769 118.125786 
L 154.10267 118.640874 
L 154.427649 118.469178 
L 154.752629 118.469178 
L 155.077609 118.297482 
L 155.402588 118.469178 
L 155.727568 118.469178 
L 156.052547 118.297482 
L 156.377527 118.469178 
L 156.702506 118.469178 
L 157.027486 118.640874 
L 157.352465 118.297482 
L 157.677445 118.125786 
L 158.652383 118.125786 
L 159.302342 118.469178 
L 159.627322 118.297482 
L 159.952301 117.610697 
L 160.277281 117.954089 
L 160.60226 118.469178 
L 160.92724 117.782393 
L 161.577199 117.782393 
L 162.552138 118.297482 
L 162.877117 117.782393 
L 163.202097 117.610697 
L 163.527076 117.954089 
L 163.852056 117.782393 
L 164.177035 118.125786 
L 164.826994 117.782393 
L 165.151974 118.125786 
L 165.476953 117.782393 
L 165.801933 118.125786 
L 166.126912 118.125786 
L 166.451892 117.610697 
L 166.776871 117.610697 
L 167.101851 117.954089 
L 167.42683 117.782393 
L 167.75181 117.782393 
L 168.07679 118.125786 
L 168.401769 117.782393 
L 168.726749 117.954089 
L 169.051728 117.439001 
L 169.376708 117.954089 
L 169.701687 117.782393 
L 170.026667 118.125786 
L 170.676626 117.782393 
L 171.001605 117.954089 
L 171.326585 117.610697 
L 171.651564 117.954089 
L 171.976544 117.954089 
L 172.301523 117.439001 
L 172.626503 117.610697 
L 172.951482 117.954089 
L 173.276462 117.610697 
L 173.601441 117.782393 
L 173.926421 117.610697 
L 174.57638 117.954089 
L 174.90136 117.610697 
L 175.551319 117.954089 
L 176.201278 117.954089 
L 176.526257 118.125786 
L 176.851237 117.782393 
L 177.176216 118.125786 
L 177.501196 117.954089 
L 177.826175 117.954089 
L 178.151155 118.125786 
L 178.476134 118.125786 
L 178.801114 117.954089 
L 179.126093 117.610697 
L 179.451073 117.954089 
L 180.426011 117.954089 
L 180.750991 118.125786 
L 182.050909 117.439001 
L 182.375889 117.610697 
L 182.700868 117.610697 
L 183.025848 117.267304 
L 183.350827 117.610697 
L 183.675807 117.782393 
L 184.000786 117.782393 
L 184.325766 117.954089 
L 184.650745 117.439001 
L 184.975725 117.610697 
L 185.300704 117.439001 
L 185.625684 117.782393 
L 185.950663 117.267304 
L 186.275643 117.782393 
L 186.600622 117.782393 
L 186.925602 117.954089 
L 187.250581 117.782393 
L 187.575561 117.782393 
L 188.22552 117.439001 
L 188.5505 117.610697 
L 189.200459 117.610697 
L 189.525438 117.782393 
L 189.850418 117.610697 
L 190.175397 117.610697 
L 190.500377 117.782393 
L 190.825356 117.782393 
L 191.150336 117.610697 
L 191.475315 117.267304 
L 191.800295 117.610697 
L 192.125274 117.439001 
L 192.450254 117.095608 
L 192.775233 117.439001 
L 193.100213 117.267304 
L 193.425192 117.610697 
L 193.750172 117.267304 
L 194.075152 117.267304 
L 194.400131 117.439001 
L 194.725111 117.954089 
L 195.05009 117.439001 
L 195.37507 117.267304 
L 196.025029 117.610697 
L 196.350008 116.923912 
L 196.674988 117.610697 
L 196.999967 117.267304 
L 197.324947 117.267304 
L 197.649926 117.095608 
L 197.974906 117.267304 
L 198.299885 117.610697 
L 198.624865 117.610697 
L 198.949844 117.267304 
L 199.274824 117.439001 
L 199.599803 117.439001 
L 199.924783 116.923912 
L 200.249762 117.610697 
L 200.574742 117.439001 
L 201.224701 117.439001 
L 201.549681 117.095608 
L 201.87466 117.267304 
L 203.824537 117.267304 
L 204.149517 117.439001 
L 204.474496 117.095608 
L 205.124455 117.439001 
L 205.449435 117.267304 
L 205.774414 117.267304 
L 206.099394 117.439001 
L 206.424373 117.439001 
L 206.749353 117.095608 
L 207.074333 116.923912 
L 208.049271 117.439001 
L 208.374251 117.439001 
L 208.69923 117.095608 
L 209.02421 117.267304 
L 209.349189 117.095608 
L 209.674169 117.439001 
L 209.999148 117.267304 
L 210.324128 117.267304 
L 210.649107 117.095608 
L 210.974087 117.610697 
L 211.299066 117.267304 
L 211.624046 117.267304 
L 211.949025 117.095608 
L 212.274005 117.439001 
L 212.598984 117.095608 
L 212.923964 116.923912 
L 213.248943 117.267304 
L 213.573923 117.439001 
L 213.898903 116.923912 
L 214.548862 117.267304 
L 214.873841 117.095608 
L 215.5238 117.439001 
L 216.173759 117.095608 
L 216.498739 117.267304 
L 216.823718 117.095608 
L 217.148698 117.439001 
L 217.798657 117.095608 
L 218.123636 117.439001 
L 219.098575 116.923912 
L 219.423554 117.267304 
L 219.748534 117.095608 
L 220.073514 117.439001 
L 220.398493 117.095608 
L 220.723473 117.267304 
L 221.048452 117.095608 
L 221.373432 117.267304 
L 221.698411 116.752216 
L 222.023391 116.923912 
L 222.34837 116.923912 
L 222.67335 117.095608 
L 223.648288 117.095608 
L 223.973268 116.58052 
L 224.298247 116.752216 
L 224.623227 116.752216 
L 224.948206 116.923912 
L 225.273186 116.923912 
L 225.598165 116.752216 
L 225.923145 116.752216 
L 226.248124 117.267304 
L 226.898084 116.408823 
L 227.223063 116.58052 
L 227.548043 116.923912 
L 227.873022 116.58052 
L 228.198002 116.752216 
L 228.847961 116.752216 
L 229.17294 116.408823 
L 229.49792 116.58052 
L 229.822899 116.58052 
L 230.147879 116.408823 
L 230.472858 116.752216 
L 230.797838 116.408823 
L 231.122817 116.752216 
L 231.447797 116.752216 
L 231.772776 116.58052 
L 232.097756 116.923912 
L 232.422735 116.752216 
L 232.747715 116.408823 
L 233.072695 116.58052 
L 233.397674 116.408823 
L 233.722654 116.408823 
L 234.047633 116.237127 
L 234.372613 116.58052 
L 234.697592 116.408823 
L 235.022572 116.58052 
L 235.347551 116.237127 
L 235.672531 116.408823 
L 235.99751 115.893735 
L 236.32249 116.408823 
L 236.647469 116.065431 
L 236.972449 116.237127 
L 237.297428 116.237127 
L 237.622408 116.408823 
L 237.947387 116.752216 
L 238.272367 116.58052 
L 238.597346 116.237127 
L 238.922326 116.58052 
L 239.247305 116.752216 
L 239.572285 116.237127 
L 239.897265 116.065431 
L 240.547224 116.065431 
L 240.872203 116.408823 
L 241.197183 116.237127 
L 241.522162 116.237127 
L 241.847142 116.408823 
L 242.82208 115.893735 
L 243.14706 115.893735 
L 243.472039 116.237127 
L 243.797019 116.237127 
L 244.121998 115.893735 
L 244.446978 116.408823 
L 244.771957 116.237127 
L 245.096937 115.893735 
L 245.421916 115.722038 
L 245.746896 115.893735 
L 246.071876 116.237127 
L 246.396855 116.065431 
L 246.721835 116.065431 
L 247.046814 115.722038 
L 247.371794 116.065431 
L 247.696773 115.893735 
L 248.021753 116.065431 
L 248.671712 116.065431 
L 248.996691 115.893735 
L 249.321671 116.065431 
L 249.64665 116.065431 
L 249.97163 115.893735 
L 251.271548 115.893735 
L 251.596527 116.065431 
L 252.246486 115.722038 
L 252.571466 115.722038 
L 252.896446 116.065431 
L 253.546405 115.722038 
L 253.871384 115.378646 
L 254.196364 116.065431 
L 254.521343 115.722038 
L 254.846323 115.550342 
L 255.171302 115.893735 
L 255.496282 115.893735 
L 255.821261 115.378646 
L 256.146241 115.893735 
L 256.47122 115.035253 
L 256.7962 115.893735 
L 257.121179 116.065431 
L 257.446159 115.722038 
L 257.771138 115.550342 
L 258.096118 115.550342 
L 258.421097 115.722038 
L 258.746077 115.722038 
L 259.071057 115.378646 
L 259.396036 115.20695 
L 259.721016 115.893735 
L 260.045995 115.20695 
L 260.370975 115.378646 
L 260.695954 115.378646 
L 261.670893 114.863557 
L 261.995872 115.20695 
L 262.320852 115.20695 
L 262.645831 115.035253 
L 262.970811 114.691861 
L 263.29579 115.378646 
L 263.62077 114.691861 
L 263.945749 115.20695 
L 264.270729 115.035253 
L 264.595708 115.035253 
L 264.920688 115.550342 
L 265.245667 115.035253 
L 265.570647 115.378646 
L 266.220606 115.035253 
L 266.870565 115.035253 
L 267.195545 115.378646 
L 267.520524 115.550342 
L 268.495463 115.035253 
L 269.145422 115.035253 
L 269.470401 115.20695 
L 269.795381 115.20695 
L 270.12036 115.035253 
L 270.44534 115.035253 
L 270.770319 115.550342 
L 271.095299 115.035253 
L 271.420278 115.035253 
L 271.745258 114.691861 
L 272.070238 115.035253 
L 272.395217 115.035253 
L 272.720197 114.520165 
L 273.045176 114.691861 
L 273.370156 114.691861 
L 273.695135 115.035253 
L 274.020115 114.691861 
L 274.345094 115.035253 
L 274.670074 114.520165 
L 274.995053 115.035253 
L 275.320033 114.520165 
L 275.645012 114.691861 
L 275.969992 114.520165 
L 276.294971 114.691861 
L 276.619951 114.520165 
L 276.94493 114.691861 
L 277.26991 114.348468 
L 277.919869 115.035253 
L 278.244848 114.863557 
L 278.569828 114.176772 
L 278.894808 114.863557 
L 279.219787 114.691861 
L 279.544767 114.863557 
L 279.869746 114.863557 
L 280.519705 114.520165 
L 281.169664 114.520165 
L 281.494644 114.691861 
L 281.819623 114.520165 
L 282.144603 114.863557 
L 282.794562 114.520165 
L 283.119541 114.691861 
L 283.444521 114.691861 
L 283.7695 115.035253 
L 284.09448 114.691861 
L 284.419459 114.520165 
L 284.744439 114.520165 
L 285.069419 114.863557 
L 285.719378 114.520165 
L 286.044357 114.863557 
L 286.369337 114.520165 
L 287.019296 114.863557 
L 287.344275 115.20695 
L 287.669255 114.691861 
L 287.994234 114.863557 
L 288.644193 114.863557 
L 289.294152 114.520165 
L 289.619132 115.035253 
L 289.944111 114.691861 
L 290.269091 114.691861 
L 290.59407 115.035253 
L 290.91905 114.691861 
L 291.244029 114.520165 
L 291.569009 115.20695 
L 291.893989 114.348468 
L 292.218968 114.176772 
L 292.543948 114.863557 
L 292.868927 114.863557 
L 293.193907 115.035253 
L 293.843866 115.035253 
L 294.168845 114.863557 
L 294.493825 114.863557 
L 294.818804 114.520165 
L 295.143784 114.691861 
L 295.468763 114.691861 
L 295.793743 114.863557 
L 296.118722 114.691861 
L 296.443702 114.863557 
L 296.768681 114.691861 
L 297.093661 114.691861 
L 297.41864 114.520165 
L 297.74362 114.520165 
L 298.0686 114.348468 
L 298.393579 114.691861 
L 298.718559 114.863557 
L 299.043538 114.520165 
L 299.368518 114.691861 
L 299.693497 114.691861 
L 300.343456 114.348468 
L 300.668436 114.691861 
L 300.993415 114.520165 
L 301.968354 114.520165 
L 302.293333 114.691861 
L 302.618313 114.348468 
L 302.943292 114.176772 
L 303.268272 114.348468 
L 303.593251 114.176772 
L 303.918231 114.348468 
L 304.24321 114.176772 
L 304.56819 113.83338 
L 304.89317 114.176772 
L 305.868108 114.176772 
L 306.193088 114.005076 
L 306.518067 114.176772 
L 306.843047 114.176772 
L 307.168026 113.661683 
L 307.493006 114.176772 
L 307.817985 113.489987 
L 308.142965 113.661683 
L 308.467944 114.520165 
L 309.117903 113.83338 
L 309.767862 114.176772 
L 310.092842 114.005076 
L 310.417821 114.348468 
L 310.742801 114.005076 
L 311.067781 114.348468 
L 311.39276 114.005076 
L 311.71774 113.83338 
L 312.042719 114.176772 
L 312.367699 114.348468 
L 312.692678 114.005076 
L 313.342637 114.348468 
L 313.667617 114.005076 
L 313.992596 114.348468 
L 314.317576 114.176772 
L 315.292514 114.176772 
L 315.617494 114.005076 
L 315.942473 114.176772 
L 316.267453 114.176772 
L 316.592432 114.005076 
L 316.917412 114.348468 
L 317.242391 114.348468 
L 317.567371 114.005076 
L 317.892351 113.489987 
L 318.21733 114.005076 
L 318.54231 113.83338 
L 318.867289 114.005076 
L 319.192269 114.005076 
L 319.517248 113.83338 
L 319.842228 113.83338 
L 320.167207 114.348468 
L 320.492187 114.005076 
L 320.817166 114.005076 
L 321.142146 114.176772 
L 321.467125 113.83338 
L 322.117084 113.83338 
L 322.442064 114.176772 
L 322.767043 114.005076 
L 323.092023 113.661683 
L 323.417002 113.83338 
L 324.066962 113.83338 
L 324.391941 113.489987 
L 324.716921 114.005076 
L 325.0419 113.83338 
L 325.36688 113.83338 
L 325.691859 113.489987 
L 326.016839 114.005076 
L 326.341818 113.661683 
L 326.666798 114.005076 
L 326.991777 113.661683 
L 327.316757 114.005076 
L 327.641736 113.83338 
L 327.966716 113.83338 
L 328.291695 113.661683 
L 328.616675 113.83338 
L 329.266634 113.489987 
L 329.591613 113.83338 
L 329.916593 113.83338 
L 330.241572 113.318291 
L 330.566552 113.318291 
L 330.891532 113.489987 
L 331.216511 113.146595 
L 331.541491 113.489987 
L 331.86647 113.489987 
L 332.19145 113.318291 
L 332.841409 113.661683 
L 333.166388 113.661683 
L 333.491368 113.489987 
L 333.816347 113.489987 
L 334.141327 113.318291 
L 334.466306 113.489987 
L 334.791286 113.489987 
L 335.116265 113.318291 
L 335.441245 113.489987 
L 336.091204 113.489987 
L 336.416183 113.146595 
L 336.741163 113.146595 
L 337.066143 113.318291 
L 337.391122 113.146595 
L 337.716102 113.489987 
L 338.041081 113.318291 
L 338.366061 113.318291 
L 338.69104 113.489987 
L 339.340999 113.146595 
L 339.665979 113.318291 
L 339.990958 112.974899 
L 340.315938 113.318291 
L 340.965897 113.318291 
L 341.290876 113.146595 
L 341.615856 113.489987 
L 341.940835 113.318291 
L 342.265815 113.318291 
L 342.590794 113.146595 
L 342.915774 113.318291 
L 343.240753 113.318291 
L 343.565733 113.489987 
L 343.890713 113.146595 
L 344.215692 113.318291 
L 344.540672 112.974899 
L 344.865651 113.318291 
L 345.190631 113.146595 
L 345.51561 113.146595 
L 345.84059 113.489987 
L 346.165569 113.489987 
L 346.490549 113.318291 
L 346.815528 113.489987 
L 347.140508 113.146595 
L 347.465487 113.318291 
L 347.790467 113.146595 
L 348.115446 113.318291 
L 348.440426 113.146595 
L 348.765405 112.803202 
L 349.090385 113.318291 
L 349.415364 112.974899 
L 350.390303 112.974899 
L 350.715283 112.803202 
L 351.040262 113.146595 
L 351.365242 113.318291 
L 351.690221 113.146595 
L 352.015201 112.803202 
L 352.34018 112.974899 
L 352.66516 113.318291 
L 352.990139 112.974899 
L 353.315119 112.803202 
L 353.640098 112.974899 
L 354.290057 112.974899 
L 354.615037 112.803202 
L 355.264996 112.803202 
L 355.589975 112.974899 
L 356.239934 112.974899 
L 356.564914 113.489987 
L 357.214873 112.803202 
L 357.539853 112.631506 
L 357.864832 112.803202 
L 358.189812 112.803202 
L 358.514791 113.146595 
L 358.839771 113.146595 
L 359.16475 112.631506 
L 359.48973 112.803202 
L 359.814709 112.803202 
L 360.139689 112.45981 
L 360.464668 112.803202 
L 360.789648 112.45981 
L 361.114627 112.45981 
L 361.439607 112.974899 
L 361.764586 112.974899 
L 362.089566 112.803202 
L 362.414545 112.803202 
L 362.739525 112.631506 
L 363.064505 112.803202 
L 363.714464 112.803202 
L 364.039443 112.631506 
L 364.364423 112.974899 
L 364.689402 112.631506 
L 365.339361 112.631506 
L 365.664341 112.45981 
L 365.98932 112.631506 
L 366.3143 112.45981 
L 366.964259 112.803202 
L 367.614218 112.45981 
L 367.939197 112.631506 
L 368.264177 112.631506 
L 368.589156 112.45981 
L 369.239115 112.803202 
L 369.564095 112.803202 
L 369.889075 112.288114 
L 370.214054 112.631506 
L 370.864013 112.631506 
L 371.188993 112.45981 
L 372.163931 112.45981 
L 372.488911 112.803202 
L 372.81389 112.288114 
L 373.13887 112.803202 
L 373.463849 112.631506 
L 373.788829 112.631506 
L 374.113808 112.45981 
L 374.438788 112.45981 
L 374.763767 112.803202 
L 375.088747 112.631506 
L 375.413726 112.631506 
L 375.738706 112.116417 
L 376.063686 112.631506 
L 376.388665 112.631506 
L 376.713645 112.288114 
L 377.038624 112.631506 
L 377.688583 112.631506 
L 378.013563 112.288114 
L 378.338542 112.45981 
L 378.663522 112.45981 
L 378.988501 112.974899 
L 379.313481 112.116417 
L 379.63846 112.288114 
L 379.96344 112.116417 
L 380.288419 112.288114 
L 380.613399 112.288114 
L 380.938378 112.803202 
L 381.263358 112.288114 
L 381.588337 112.288114 
L 381.913317 112.116417 
L 382.238296 112.631506 
L 382.563276 112.45981 
L 382.888256 111.773025 
L 383.213235 112.45981 
L 383.538215 112.116417 
L 383.863194 112.631506 
L 384.188174 112.116417 
L 384.838133 112.116417 
L 385.163112 112.288114 
L 385.488092 112.631506 
L 385.813071 112.45981 
L 386.138051 112.45981 
L 386.46303 112.288114 
L 387.112989 112.288114 
L 387.437969 112.116417 
L 387.762948 112.288114 
L 388.087928 112.974899 
L 388.737887 112.288114 
L 389.062867 112.288114 
L 389.387846 112.45981 
L 389.712826 111.773025 
L 390.037805 112.45981 
L 390.362785 112.116417 
L 390.687764 112.288114 
L 391.012744 112.631506 
L 391.337723 112.288114 
L 391.662703 112.631506 
L 391.987682 112.288114 
L 392.312662 112.288114 
L 392.637641 111.944721 
L 392.962621 112.288114 
L 393.2876 112.45981 
L 393.61258 112.116417 
L 393.937559 112.288114 
L 394.262539 112.803202 
L 394.587518 112.288114 
L 395.562457 112.288114 
L 395.887437 112.631506 
L 396.212416 112.45981 
L 396.537396 112.45981 
L 396.862375 112.116417 
L 397.187355 112.631506 
L 397.512334 112.288114 
L 397.837314 112.631506 
L 398.162293 112.116417 
L 398.487273 112.631506 
L 398.487273 112.631506 
" style="fill:none;stroke:#008000;stroke-linecap:square;stroke-width:0.6;"/>
   </g>
   <g id="patch_3">
    <path d="M 57.6 307.584 
L 57.6 41.472 
" style="fill:none;stroke:#000000;stroke-linecap:square;stroke-linejoin:miter;stroke-width:0.8;"/>
   </g>
   <g id="patch_4">
    <path d="M 414.72 307.584 
L 414.72 41.472 
" style="fill:none;stroke:#000000;stroke-linecap:square;stroke-linejoin:miter;stroke-width:0.8;"/>
   </g>
   <g id="patch_5">
    <path d="M 57.6 307.584 
L 414.72 307.584 
" style="fill:none;stroke:#000000;stroke-linecap:square;stroke-linejoin:miter;stroke-width:0.8;"/>
   </g>
   <g id="patch_6">
    <path d="M 57.6 41.472 
L 414.72 41.472 
" style="fill:none;stroke:#000000;stroke-linecap:square;stroke-linejoin:miter;stroke-width:0.8;"/>
   </g>
   <g id="text_17">
    <!-- fig_2_5 -->
    <defs>
     <path d="M 37.109375 75.984375 
L 37.109375 68.5 
L 28.515625 68.5 
Q 23.6875 68.5 21.796875 66.546875 
Q 19.921875 64.59375 19.921875 59.515625 
L 19.921875 54.6875 
L 34.71875 54.6875 
L 34.71875 47.703125 
L 19.921875 47.703125 
L 19.921875 0 
L 10.890625 0 
L 10.890625 47.703125 
L 2.296875 47.703125 
L 2.296875 54.6875 
L 10.890625 54.6875 
L 10.890625 58.5 
Q 10.890625 67.625 15.140625 71.796875 
Q 19.390625 75.984375 28.609375 75.984375 
z
" id="DejaVuSans-66"/>
     <path d="M 45.40625 27.984375 
Q 45.40625 37.75 41.375 43.109375 
Q 37.359375 48.484375 30.078125 48.484375 
Q 22.859375 48.484375 18.828125 43.109375 
Q 14.796875 37.75 14.796875 27.984375 
Q 14.796875 18.265625 18.828125 12.890625 
Q 22.859375 7.515625 30.078125 7.515625 
Q 37.359375 7.515625 41.375 12.890625 
Q 45.40625 18.265625 45.40625 27.984375 
z
M 54.390625 6.78125 
Q 54.390625 -7.171875 48.1875 -13.984375 
Q 42 -20.796875 29.203125 -20.796875 
Q 24.46875 -20.796875 20.265625 -20.09375 
Q 16.0625 -19.390625 12.109375 -17.921875 
L 12.109375 -9.1875 
Q 16.0625 -11.328125 19.921875 -12.34375 
Q 23.78125 -13.375 27.78125 -13.375 
Q 36.625 -13.375 41.015625 -8.765625 
Q 45.40625 -4.15625 45.40625 5.171875 
L 45.40625 9.625 
Q 42.625 4.78125 38.28125 2.390625 
Q 33.9375 0 27.875 0 
Q 17.828125 0 11.671875 7.65625 
Q 5.515625 15.328125 5.515625 27.984375 
Q 5.515625 40.671875 11.671875 48.328125 
Q 17.828125 56 27.875 56 
Q 33.9375 56 38.28125 53.609375 
Q 42.625 51.21875 45.40625 46.390625 
L 45.40625 54.6875 
L 54.390625 54.6875 
z
" id="DejaVuSans-67"/>
     <path d="M 50.984375 -16.609375 
L 50.984375 -23.578125 
L -0.984375 -23.578125 
L -0.984375 -16.609375 
z
" id="DejaVuSans-5f"/>
    </defs>
    <g transform="translate(214.936875 35.472)scale(0.12 -0.12)">
     <use xlink:href="#DejaVuSans-66"/>
     <use x="35.205078" xlink:href="#DejaVuSans-69"/>
     <use x="62.988281" xlink:href="#DejaVuSans-67"/>
     <use x="126.464844" xlink:href="#DejaVuSans-5f"/>
     <use x="176.464844" xlink:href="#DejaVuSans-32"/>
     <use x="240.087891" xlink:href="#DejaVuSans-5f"/>
     <use x="290.087891" xlink:href="#DejaVuSans-35"/>
    </g>
   </g>
   <g id="legend_1">
    <g id="patch_7">
     <path d="M 323.716875 302.584 
L 407.72 302.584 
Q 409.72 302.584 409.72 300.584 
L 409.72 272.22775 
Q 409.72 270.22775 407.72 270.22775 
L 323.716875 270.22775 
Q 321.716875 270.22775 321.716875 272.22775 
L 321.716875 300.584 
Q 321.716875 302.584 323.716875 302.584 
z
" style="fill:#ffffff;opacity:0.8;stroke:#cccccc;stroke-linejoin:miter;"/>
    </g>
    <g id="line2d_17">
     <path d="M 325.716875 278.326187 
L 345.716875 278.326187 
" style="fill:none;stroke:#ff0000;stroke-linecap:square;stroke-width:0.6;"/>
    </g>
    <g id="line2d_18"/>
    <g id="text_18">
     <!-- alpha=0.1 -->
     <defs>
      <path d="M 54.890625 33.015625 
L 54.890625 0 
L 45.90625 0 
L 45.90625 32.71875 
Q 45.90625 40.484375 42.875 44.328125 
Q 39.84375 48.1875 33.796875 48.1875 
Q 26.515625 48.1875 22.3125 43.546875 
Q 18.109375 38.921875 18.109375 30.90625 
L 18.109375 0 
L 9.078125 0 
L 9.078125 75.984375 
L 18.109375 75.984375 
L 18.109375 46.1875 
Q 21.34375 51.125 25.703125 53.5625 
Q 30.078125 56 35.796875 56 
Q 45.21875 56 50.046875 50.171875 
Q 54.890625 44.34375 54.890625 33.015625 
z
" id="DejaVuSans-68"/>
      <path d="M 10.59375 45.40625 
L 73.1875 45.40625 
L 73.1875 37.203125 
L 10.59375 37.203125 
z
M 10.59375 25.484375 
L 73.1875 25.484375 
L 73.1875 17.1875 
L 10.59375 17.1875 
z
" id="DejaVuSans-3d"/>
     </defs>
     <g transform="translate(353.716875 281.826187)scale(0.1 -0.1)">
      <use xlink:href="#DejaVuSans-61"/>
      <use x="61.279297" xlink:href="#DejaVuSans-6c"/>
      <use x="89.0625" xlink:href="#DejaVuSans-70"/>
      <use x="152.539062" xlink:href="#DejaVuSans-68"/>
      <use x="215.917969" xlink:href="#DejaVuSans-61"/>
      <use x="277.197266" xlink:href="#DejaVuSans-3d"/>
      <use x="360.986328" xlink:href="#DejaVuSans-30"/>
      <use x="424.609375" xlink:href="#DejaVuSans-2e"/>
      <use x="456.396484" xlink:href="#DejaVuSans-31"/>
     </g>
    </g>
    <g id="line2d_19">
     <path d="M 325.716875 293.004312 
L 345.716875 293.004312 
" style="fill:none;stroke:#008000;stroke-linecap:square;stroke-width:0.6;"/>
    </g>
    <g id="line2d_20"/>
    <g id="text_19">
     <!-- alpha=0.4 -->
     <g transform="translate(353.716875 296.504312)scale(0.1 -0.1)">
      <use xlink:href="#DejaVuSans-61"/>
      <use x="61.279297" xlink:href="#DejaVuSans-6c"/>
      <use x="89.0625" xlink:href="#DejaVuSans-70"/>
      <use x="152.539062" xlink:href="#DejaVuSans-68"/>
      <use x="215.917969" xlink:href="#DejaVuSans-61"/>
      <use x="277.197266" xlink:href="#DejaVuSans-3d"/>
      <use x="360.986328" xlink:href="#DejaVuSans-30"/>
      <use x="424.609375" xlink:href="#DejaVuSans-2e"/>
      <use x="456.396484" xlink:href="#DejaVuSans-34"/>
     </g>
    </g>
   </g>
  </g>
 </g>
 <defs>
  <clipPath id="pea8aeb7732">
   <rect height="266.112" width="357.12" x="57.6" y="41.472"/>
  </clipPath>
 </defs>
</svg>
