<?xml version="1.0" encoding="utf-8" standalone="no"?>
<!DOCTYPE svg PUBLIC "-//W3C//DTD SVG 1.1//EN"
  "http://www.w3.org/Graphics/SVG/1.1/DTD/svg11.dtd">
<!-- Created with matplotlib (http://matplotlib.org/) -->
<svg height="345.6pt" version="1.1" viewBox="0 0 460.8 345.6" width="460.8pt" xmlns="http://www.w3.org/2000/svg" xmlns:xlink="http://www.w3.org/1999/xlink">
 <defs>
  <style type="text/css">
*{stroke-linecap:butt;stroke-linejoin:round;}
  </style>
 </defs>
 <g id="figure_1">
  <g id="patch_1">
   <path d="M 0 345.6 
L 460.8 345.6 
L 460.8 0 
L 0 0 
z
" style="fill:#ffffff;"/>
  </g>
  <g id="axes_1">
   <g id="patch_2">
    <path d="M 57.6 307.584 
L 414.72 307.584 
L 414.72 41.472 
L 57.6 41.472 
z
" style="fill:#ffffff;"/>
   </g>
   <g id="matplotlib.axis_1">
    <g id="xtick_1">
     <g id="line2d_1">
      <defs>
       <path d="M 0 0 
L 0 3.5 
" id="m5b4530802a" style="stroke:#000000;stroke-width:0.8;"/>
      </defs>
      <g>
       <use style="stroke:#000000;stroke-width:0.8;" x="73.832727" xlink:href="#m5b4530802a" y="307.584"/>
      </g>
     </g>
     <g id="text_1">
      <!-- 0 -->
      <defs>
       <path d="M 31.78125 66.40625 
Q 24.171875 66.40625 20.328125 58.90625 
Q 16.5 51.421875 16.5 36.375 
Q 16.5 21.390625 20.328125 13.890625 
Q 24.171875 6.390625 31.78125 6.390625 
Q 39.453125 6.390625 43.28125 13.890625 
Q 47.125 21.390625 47.125 36.375 
Q 47.125 51.421875 43.28125 58.90625 
Q 39.453125 66.40625 31.78125 66.40625 
z
M 31.78125 74.21875 
Q 44.046875 74.21875 50.515625 64.515625 
Q 56.984375 54.828125 56.984375 36.375 
Q 56.984375 17.96875 50.515625 8.265625 
Q 44.046875 -1.421875 31.78125 -1.421875 
Q 19.53125 -1.421875 13.0625 8.265625 
Q 6.59375 17.96875 6.59375 36.375 
Q 6.59375 54.828125 13.0625 64.515625 
Q 19.53125 74.21875 31.78125 74.21875 
z
" id="DejaVuSans-30"/>
      </defs>
      <g transform="translate(70.651477 322.182437)scale(0.1 -0.1)">
       <use xlink:href="#DejaVuSans-30"/>
      </g>
     </g>
    </g>
    <g id="xtick_2">
     <g id="line2d_2">
      <g>
       <use style="stroke:#000000;stroke-width:0.8;" x="138.828632" xlink:href="#m5b4530802a" y="307.584"/>
      </g>
     </g>
     <g id="text_2">
      <!-- 200 -->
      <defs>
       <path d="M 19.1875 8.296875 
L 53.609375 8.296875 
L 53.609375 0 
L 7.328125 0 
L 7.328125 8.296875 
Q 12.9375 14.109375 22.625 23.890625 
Q 32.328125 33.6875 34.8125 36.53125 
Q 39.546875 41.84375 41.421875 45.53125 
Q 43.3125 49.21875 43.3125 52.78125 
Q 43.3125 58.59375 39.234375 62.25 
Q 35.15625 65.921875 28.609375 65.921875 
Q 23.96875 65.921875 18.8125 64.3125 
Q 13.671875 62.703125 7.8125 59.421875 
L 7.8125 69.390625 
Q 13.765625 71.78125 18.9375 73 
Q 24.125 74.21875 28.421875 74.21875 
Q 39.75 74.21875 46.484375 68.546875 
Q 53.21875 62.890625 53.21875 53.421875 
Q 53.21875 48.921875 51.53125 44.890625 
Q 49.859375 40.875 45.40625 35.40625 
Q 44.1875 33.984375 37.640625 27.21875 
Q 31.109375 20.453125 19.1875 8.296875 
z
" id="DejaVuSans-32"/>
      </defs>
      <g transform="translate(129.284882 322.182437)scale(0.1 -0.1)">
       <use xlink:href="#DejaVuSans-32"/>
       <use x="63.623047" xlink:href="#DejaVuSans-30"/>
       <use x="127.246094" xlink:href="#DejaVuSans-30"/>
      </g>
     </g>
    </g>
    <g id="xtick_3">
     <g id="line2d_3">
      <g>
       <use style="stroke:#000000;stroke-width:0.8;" x="203.824537" xlink:href="#m5b4530802a" y="307.584"/>
      </g>
     </g>
     <g id="text_3">
      <!-- 400 -->
      <defs>
       <path d="M 37.796875 64.3125 
L 12.890625 25.390625 
L 37.796875 25.390625 
z
M 35.203125 72.90625 
L 47.609375 72.90625 
L 47.609375 25.390625 
L 58.015625 25.390625 
L 58.015625 17.1875 
L 47.609375 17.1875 
L 47.609375 0 
L 37.796875 0 
L 37.796875 17.1875 
L 4.890625 17.1875 
L 4.890625 26.703125 
z
" id="DejaVuSans-34"/>
      </defs>
      <g transform="translate(194.280787 322.182437)scale(0.1 -0.1)">
       <use xlink:href="#DejaVuSans-34"/>
       <use x="63.623047" xlink:href="#DejaVuSans-30"/>
       <use x="127.246094" xlink:href="#DejaVuSans-30"/>
      </g>
     </g>
    </g>
    <g id="xtick_4">
     <g id="line2d_4">
      <g>
       <use style="stroke:#000000;stroke-width:0.8;" x="268.820442" xlink:href="#m5b4530802a" y="307.584"/>
      </g>
     </g>
     <g id="text_4">
      <!-- 600 -->
      <defs>
       <path d="M 33.015625 40.375 
Q 26.375 40.375 22.484375 35.828125 
Q 18.609375 31.296875 18.609375 23.390625 
Q 18.609375 15.53125 22.484375 10.953125 
Q 26.375 6.390625 33.015625 6.390625 
Q 39.65625 6.390625 43.53125 10.953125 
Q 47.40625 15.53125 47.40625 23.390625 
Q 47.40625 31.296875 43.53125 35.828125 
Q 39.65625 40.375 33.015625 40.375 
z
M 52.59375 71.296875 
L 52.59375 62.3125 
Q 48.875 64.0625 45.09375 64.984375 
Q 41.3125 65.921875 37.59375 65.921875 
Q 27.828125 65.921875 22.671875 59.328125 
Q 17.53125 52.734375 16.796875 39.40625 
Q 19.671875 43.65625 24.015625 45.921875 
Q 28.375 48.1875 33.59375 48.1875 
Q 44.578125 48.1875 50.953125 41.515625 
Q 57.328125 34.859375 57.328125 23.390625 
Q 57.328125 12.15625 50.6875 5.359375 
Q 44.046875 -1.421875 33.015625 -1.421875 
Q 20.359375 -1.421875 13.671875 8.265625 
Q 6.984375 17.96875 6.984375 36.375 
Q 6.984375 53.65625 15.1875 63.9375 
Q 23.390625 74.21875 37.203125 74.21875 
Q 40.921875 74.21875 44.703125 73.484375 
Q 48.484375 72.75 52.59375 71.296875 
z
" id="DejaVuSans-36"/>
      </defs>
      <g transform="translate(259.276692 322.182437)scale(0.1 -0.1)">
       <use xlink:href="#DejaVuSans-36"/>
       <use x="63.623047" xlink:href="#DejaVuSans-30"/>
       <use x="127.246094" xlink:href="#DejaVuSans-30"/>
      </g>
     </g>
    </g>
    <g id="xtick_5">
     <g id="line2d_5">
      <g>
       <use style="stroke:#000000;stroke-width:0.8;" x="333.816347" xlink:href="#m5b4530802a" y="307.584"/>
      </g>
     </g>
     <g id="text_5">
      <!-- 800 -->
      <defs>
       <path d="M 31.78125 34.625 
Q 24.75 34.625 20.71875 30.859375 
Q 16.703125 27.09375 16.703125 20.515625 
Q 16.703125 13.921875 20.71875 10.15625 
Q 24.75 6.390625 31.78125 6.390625 
Q 38.8125 6.390625 42.859375 10.171875 
Q 46.921875 13.96875 46.921875 20.515625 
Q 46.921875 27.09375 42.890625 30.859375 
Q 38.875 34.625 31.78125 34.625 
z
M 21.921875 38.8125 
Q 15.578125 40.375 12.03125 44.71875 
Q 8.5 49.078125 8.5 55.328125 
Q 8.5 64.0625 14.71875 69.140625 
Q 20.953125 74.21875 31.78125 74.21875 
Q 42.671875 74.21875 48.875 69.140625 
Q 55.078125 64.0625 55.078125 55.328125 
Q 55.078125 49.078125 51.53125 44.71875 
Q 48 40.375 41.703125 38.8125 
Q 48.828125 37.15625 52.796875 32.3125 
Q 56.78125 27.484375 56.78125 20.515625 
Q 56.78125 9.90625 50.3125 4.234375 
Q 43.84375 -1.421875 31.78125 -1.421875 
Q 19.734375 -1.421875 13.25 4.234375 
Q 6.78125 9.90625 6.78125 20.515625 
Q 6.78125 27.484375 10.78125 32.3125 
Q 14.796875 37.15625 21.921875 38.8125 
z
M 18.3125 54.390625 
Q 18.3125 48.734375 21.84375 45.5625 
Q 25.390625 42.390625 31.78125 42.390625 
Q 38.140625 42.390625 41.71875 45.5625 
Q 45.3125 48.734375 45.3125 54.390625 
Q 45.3125 60.0625 41.71875 63.234375 
Q 38.140625 66.40625 31.78125 66.40625 
Q 25.390625 66.40625 21.84375 63.234375 
Q 18.3125 60.0625 18.3125 54.390625 
z
" id="DejaVuSans-38"/>
      </defs>
      <g transform="translate(324.272597 322.182437)scale(0.1 -0.1)">
       <use xlink:href="#DejaVuSans-38"/>
       <use x="63.623047" xlink:href="#DejaVuSans-30"/>
       <use x="127.246094" xlink:href="#DejaVuSans-30"/>
      </g>
     </g>
    </g>
    <g id="xtick_6">
     <g id="line2d_6">
      <g>
       <use style="stroke:#000000;stroke-width:0.8;" x="398.812252" xlink:href="#m5b4530802a" y="307.584"/>
      </g>
     </g>
     <g id="text_6">
      <!-- 1000 -->
      <defs>
       <path d="M 12.40625 8.296875 
L 28.515625 8.296875 
L 28.515625 63.921875 
L 10.984375 60.40625 
L 10.984375 69.390625 
L 28.421875 72.90625 
L 38.28125 72.90625 
L 38.28125 8.296875 
L 54.390625 8.296875 
L 54.390625 0 
L 12.40625 0 
z
" id="DejaVuSans-31"/>
      </defs>
      <g transform="translate(386.087252 322.182437)scale(0.1 -0.1)">
       <use xlink:href="#DejaVuSans-31"/>
       <use x="63.623047" xlink:href="#DejaVuSans-30"/>
       <use x="127.246094" xlink:href="#DejaVuSans-30"/>
       <use x="190.869141" xlink:href="#DejaVuSans-30"/>
      </g>
     </g>
    </g>
    <g id="text_7">
     <!-- time step -->
     <defs>
      <path d="M 18.3125 70.21875 
L 18.3125 54.6875 
L 36.8125 54.6875 
L 36.8125 47.703125 
L 18.3125 47.703125 
L 18.3125 18.015625 
Q 18.3125 11.328125 20.140625 9.421875 
Q 21.96875 7.515625 27.59375 7.515625 
L 36.8125 7.515625 
L 36.8125 0 
L 27.59375 0 
Q 17.1875 0 13.234375 3.875 
Q 9.28125 7.765625 9.28125 18.015625 
L 9.28125 47.703125 
L 2.6875 47.703125 
L 2.6875 54.6875 
L 9.28125 54.6875 
L 9.28125 70.21875 
z
" id="DejaVuSans-74"/>
      <path d="M 9.421875 54.6875 
L 18.40625 54.6875 
L 18.40625 0 
L 9.421875 0 
z
M 9.421875 75.984375 
L 18.40625 75.984375 
L 18.40625 64.59375 
L 9.421875 64.59375 
z
" id="DejaVuSans-69"/>
      <path d="M 52 44.1875 
Q 55.375 50.25 60.0625 53.125 
Q 64.75 56 71.09375 56 
Q 79.640625 56 84.28125 50.015625 
Q 88.921875 44.046875 88.921875 33.015625 
L 88.921875 0 
L 79.890625 0 
L 79.890625 32.71875 
Q 79.890625 40.578125 77.09375 44.375 
Q 74.3125 48.1875 68.609375 48.1875 
Q 61.625 48.1875 57.5625 43.546875 
Q 53.515625 38.921875 53.515625 30.90625 
L 53.515625 0 
L 44.484375 0 
L 44.484375 32.71875 
Q 44.484375 40.625 41.703125 44.40625 
Q 38.921875 48.1875 33.109375 48.1875 
Q 26.21875 48.1875 22.15625 43.53125 
Q 18.109375 38.875 18.109375 30.90625 
L 18.109375 0 
L 9.078125 0 
L 9.078125 54.6875 
L 18.109375 54.6875 
L 18.109375 46.1875 
Q 21.1875 51.21875 25.484375 53.609375 
Q 29.78125 56 35.6875 56 
Q 41.65625 56 45.828125 52.96875 
Q 50 49.953125 52 44.1875 
z
" id="DejaVuSans-6d"/>
      <path d="M 56.203125 29.59375 
L 56.203125 25.203125 
L 14.890625 25.203125 
Q 15.484375 15.921875 20.484375 11.0625 
Q 25.484375 6.203125 34.421875 6.203125 
Q 39.59375 6.203125 44.453125 7.46875 
Q 49.3125 8.734375 54.109375 11.28125 
L 54.109375 2.78125 
Q 49.265625 0.734375 44.1875 -0.34375 
Q 39.109375 -1.421875 33.890625 -1.421875 
Q 20.796875 -1.421875 13.15625 6.1875 
Q 5.515625 13.8125 5.515625 26.8125 
Q 5.515625 40.234375 12.765625 48.109375 
Q 20.015625 56 32.328125 56 
Q 43.359375 56 49.78125 48.890625 
Q 56.203125 41.796875 56.203125 29.59375 
z
M 47.21875 32.234375 
Q 47.125 39.59375 43.09375 43.984375 
Q 39.0625 48.390625 32.421875 48.390625 
Q 24.90625 48.390625 20.390625 44.140625 
Q 15.875 39.890625 15.1875 32.171875 
z
" id="DejaVuSans-65"/>
      <path id="DejaVuSans-20"/>
      <path d="M 44.28125 53.078125 
L 44.28125 44.578125 
Q 40.484375 46.53125 36.375 47.5 
Q 32.28125 48.484375 27.875 48.484375 
Q 21.1875 48.484375 17.84375 46.4375 
Q 14.5 44.390625 14.5 40.28125 
Q 14.5 37.15625 16.890625 35.375 
Q 19.28125 33.59375 26.515625 31.984375 
L 29.59375 31.296875 
Q 39.15625 29.25 43.1875 25.515625 
Q 47.21875 21.78125 47.21875 15.09375 
Q 47.21875 7.46875 41.1875 3.015625 
Q 35.15625 -1.421875 24.609375 -1.421875 
Q 20.21875 -1.421875 15.453125 -0.5625 
Q 10.6875 0.296875 5.421875 2 
L 5.421875 11.28125 
Q 10.40625 8.6875 15.234375 7.390625 
Q 20.0625 6.109375 24.8125 6.109375 
Q 31.15625 6.109375 34.5625 8.28125 
Q 37.984375 10.453125 37.984375 14.40625 
Q 37.984375 18.0625 35.515625 20.015625 
Q 33.0625 21.96875 24.703125 23.78125 
L 21.578125 24.515625 
Q 13.234375 26.265625 9.515625 29.90625 
Q 5.8125 33.546875 5.8125 39.890625 
Q 5.8125 47.609375 11.28125 51.796875 
Q 16.75 56 26.8125 56 
Q 31.78125 56 36.171875 55.265625 
Q 40.578125 54.546875 44.28125 53.078125 
z
" id="DejaVuSans-73"/>
      <path d="M 18.109375 8.203125 
L 18.109375 -20.796875 
L 9.078125 -20.796875 
L 9.078125 54.6875 
L 18.109375 54.6875 
L 18.109375 46.390625 
Q 20.953125 51.265625 25.265625 53.625 
Q 29.59375 56 35.59375 56 
Q 45.5625 56 51.78125 48.09375 
Q 58.015625 40.1875 58.015625 27.296875 
Q 58.015625 14.40625 51.78125 6.484375 
Q 45.5625 -1.421875 35.59375 -1.421875 
Q 29.59375 -1.421875 25.265625 0.953125 
Q 20.953125 3.328125 18.109375 8.203125 
z
M 48.6875 27.296875 
Q 48.6875 37.203125 44.609375 42.84375 
Q 40.53125 48.484375 33.40625 48.484375 
Q 26.265625 48.484375 22.1875 42.84375 
Q 18.109375 37.203125 18.109375 27.296875 
Q 18.109375 17.390625 22.1875 11.75 
Q 26.265625 6.109375 33.40625 6.109375 
Q 40.53125 6.109375 44.609375 11.75 
Q 48.6875 17.390625 48.6875 27.296875 
z
" id="DejaVuSans-70"/>
     </defs>
     <g transform="translate(212.459219 335.860562)scale(0.1 -0.1)">
      <use xlink:href="#DejaVuSans-74"/>
      <use x="39.208984" xlink:href="#DejaVuSans-69"/>
      <use x="66.992188" xlink:href="#DejaVuSans-6d"/>
      <use x="164.404297" xlink:href="#DejaVuSans-65"/>
      <use x="225.927734" xlink:href="#DejaVuSans-20"/>
      <use x="257.714844" xlink:href="#DejaVuSans-73"/>
      <use x="309.814453" xlink:href="#DejaVuSans-74"/>
      <use x="349.023438" xlink:href="#DejaVuSans-65"/>
      <use x="410.546875" xlink:href="#DejaVuSans-70"/>
     </g>
    </g>
   </g>
   <g id="matplotlib.axis_2">
    <g id="ytick_1">
     <g id="line2d_7">
      <defs>
       <path d="M 0 0 
L -3.5 0 
" id="mbf8c2ea650" style="stroke:#000000;stroke-width:0.8;"/>
      </defs>
      <g>
       <use style="stroke:#000000;stroke-width:0.8;" x="57.6" xlink:href="#mbf8c2ea650" y="282.132093"/>
      </g>
     </g>
     <g id="text_8">
      <!-- 4.00 -->
      <defs>
       <path d="M 10.6875 12.40625 
L 21 12.40625 
L 21 0 
L 10.6875 0 
z
" id="DejaVuSans-2e"/>
      </defs>
      <g transform="translate(28.334375 285.931311)scale(0.1 -0.1)">
       <use xlink:href="#DejaVuSans-34"/>
       <use x="63.623047" xlink:href="#DejaVuSans-2e"/>
       <use x="95.410156" xlink:href="#DejaVuSans-30"/>
       <use x="159.033203" xlink:href="#DejaVuSans-30"/>
      </g>
     </g>
    </g>
    <g id="ytick_2">
     <g id="line2d_8">
      <g>
       <use style="stroke:#000000;stroke-width:0.8;" x="57.6" xlink:href="#mbf8c2ea650" y="245.316505"/>
      </g>
     </g>
     <g id="text_9">
      <!-- 4.25 -->
      <defs>
       <path d="M 10.796875 72.90625 
L 49.515625 72.90625 
L 49.515625 64.59375 
L 19.828125 64.59375 
L 19.828125 46.734375 
Q 21.96875 47.46875 24.109375 47.828125 
Q 26.265625 48.1875 28.421875 48.1875 
Q 40.625 48.1875 47.75 41.5 
Q 54.890625 34.8125 54.890625 23.390625 
Q 54.890625 11.625 47.5625 5.09375 
Q 40.234375 -1.421875 26.90625 -1.421875 
Q 22.3125 -1.421875 17.546875 -0.640625 
Q 12.796875 0.140625 7.71875 1.703125 
L 7.71875 11.625 
Q 12.109375 9.234375 16.796875 8.0625 
Q 21.484375 6.890625 26.703125 6.890625 
Q 35.15625 6.890625 40.078125 11.328125 
Q 45.015625 15.765625 45.015625 23.390625 
Q 45.015625 31 40.078125 35.4375 
Q 35.15625 39.890625 26.703125 39.890625 
Q 22.75 39.890625 18.8125 39.015625 
Q 14.890625 38.140625 10.796875 36.28125 
z
" id="DejaVuSans-35"/>
      </defs>
      <g transform="translate(28.334375 249.115724)scale(0.1 -0.1)">
       <use xlink:href="#DejaVuSans-34"/>
       <use x="63.623047" xlink:href="#DejaVuSans-2e"/>
       <use x="95.410156" xlink:href="#DejaVuSans-32"/>
       <use x="159.033203" xlink:href="#DejaVuSans-35"/>
      </g>
     </g>
    </g>
    <g id="ytick_3">
     <g id="line2d_9">
      <g>
       <use style="stroke:#000000;stroke-width:0.8;" x="57.6" xlink:href="#mbf8c2ea650" y="208.500918"/>
      </g>
     </g>
     <g id="text_10">
      <!-- 4.50 -->
      <g transform="translate(28.334375 212.300136)scale(0.1 -0.1)">
       <use xlink:href="#DejaVuSans-34"/>
       <use x="63.623047" xlink:href="#DejaVuSans-2e"/>
       <use x="95.410156" xlink:href="#DejaVuSans-35"/>
       <use x="159.033203" xlink:href="#DejaVuSans-30"/>
      </g>
     </g>
    </g>
    <g id="ytick_4">
     <g id="line2d_10">
      <g>
       <use style="stroke:#000000;stroke-width:0.8;" x="57.6" xlink:href="#mbf8c2ea650" y="171.68533"/>
      </g>
     </g>
     <g id="text_11">
      <!-- 4.75 -->
      <defs>
       <path d="M 8.203125 72.90625 
L 55.078125 72.90625 
L 55.078125 68.703125 
L 28.609375 0 
L 18.3125 0 
L 43.21875 64.59375 
L 8.203125 64.59375 
z
" id="DejaVuSans-37"/>
      </defs>
      <g transform="translate(28.334375 175.484549)scale(0.1 -0.1)">
       <use xlink:href="#DejaVuSans-34"/>
       <use x="63.623047" xlink:href="#DejaVuSans-2e"/>
       <use x="95.410156" xlink:href="#DejaVuSans-37"/>
       <use x="159.033203" xlink:href="#DejaVuSans-35"/>
      </g>
     </g>
    </g>
    <g id="ytick_5">
     <g id="line2d_11">
      <g>
       <use style="stroke:#000000;stroke-width:0.8;" x="57.6" xlink:href="#mbf8c2ea650" y="134.869742"/>
      </g>
     </g>
     <g id="text_12">
      <!-- 5.00 -->
      <g transform="translate(28.334375 138.668961)scale(0.1 -0.1)">
       <use xlink:href="#DejaVuSans-35"/>
       <use x="63.623047" xlink:href="#DejaVuSans-2e"/>
       <use x="95.410156" xlink:href="#DejaVuSans-30"/>
       <use x="159.033203" xlink:href="#DejaVuSans-30"/>
      </g>
     </g>
    </g>
    <g id="ytick_6">
     <g id="line2d_12">
      <g>
       <use style="stroke:#000000;stroke-width:0.8;" x="57.6" xlink:href="#mbf8c2ea650" y="98.054155"/>
      </g>
     </g>
     <g id="text_13">
      <!-- 5.25 -->
      <g transform="translate(28.334375 101.853374)scale(0.1 -0.1)">
       <use xlink:href="#DejaVuSans-35"/>
       <use x="63.623047" xlink:href="#DejaVuSans-2e"/>
       <use x="95.410156" xlink:href="#DejaVuSans-32"/>
       <use x="159.033203" xlink:href="#DejaVuSans-35"/>
      </g>
     </g>
    </g>
    <g id="ytick_7">
     <g id="line2d_13">
      <g>
       <use style="stroke:#000000;stroke-width:0.8;" x="57.6" xlink:href="#mbf8c2ea650" y="61.238567"/>
      </g>
     </g>
     <g id="text_14">
      <!-- 5.50 -->
      <g transform="translate(28.334375 65.037786)scale(0.1 -0.1)">
       <use xlink:href="#DejaVuSans-35"/>
       <use x="63.623047" xlink:href="#DejaVuSans-2e"/>
       <use x="95.410156" xlink:href="#DejaVuSans-35"/>
       <use x="159.033203" xlink:href="#DejaVuSans-30"/>
      </g>
     </g>
    </g>
    <g id="text_15">
     <!-- reward -->
     <defs>
      <path d="M 41.109375 46.296875 
Q 39.59375 47.171875 37.8125 47.578125 
Q 36.03125 48 33.890625 48 
Q 26.265625 48 22.1875 43.046875 
Q 18.109375 38.09375 18.109375 28.8125 
L 18.109375 0 
L 9.078125 0 
L 9.078125 54.6875 
L 18.109375 54.6875 
L 18.109375 46.1875 
Q 20.953125 51.171875 25.484375 53.578125 
Q 30.03125 56 36.53125 56 
Q 37.453125 56 38.578125 55.875 
Q 39.703125 55.765625 41.0625 55.515625 
z
" id="DejaVuSans-72"/>
      <path d="M 4.203125 54.6875 
L 13.1875 54.6875 
L 24.421875 12.015625 
L 35.59375 54.6875 
L 46.1875 54.6875 
L 57.421875 12.015625 
L 68.609375 54.6875 
L 77.59375 54.6875 
L 63.28125 0 
L 52.6875 0 
L 40.921875 44.828125 
L 29.109375 0 
L 18.5 0 
z
" id="DejaVuSans-77"/>
      <path d="M 34.28125 27.484375 
Q 23.390625 27.484375 19.1875 25 
Q 14.984375 22.515625 14.984375 16.5 
Q 14.984375 11.71875 18.140625 8.90625 
Q 21.296875 6.109375 26.703125 6.109375 
Q 34.1875 6.109375 38.703125 11.40625 
Q 43.21875 16.703125 43.21875 25.484375 
L 43.21875 27.484375 
z
M 52.203125 31.203125 
L 52.203125 0 
L 43.21875 0 
L 43.21875 8.296875 
Q 40.140625 3.328125 35.546875 0.953125 
Q 30.953125 -1.421875 24.3125 -1.421875 
Q 15.921875 -1.421875 10.953125 3.296875 
Q 6 8.015625 6 15.921875 
Q 6 25.140625 12.171875 29.828125 
Q 18.359375 34.515625 30.609375 34.515625 
L 43.21875 34.515625 
L 43.21875 35.40625 
Q 43.21875 41.609375 39.140625 45 
Q 35.0625 48.390625 27.6875 48.390625 
Q 23 48.390625 18.546875 47.265625 
Q 14.109375 46.140625 10.015625 43.890625 
L 10.015625 52.203125 
Q 14.9375 54.109375 19.578125 55.046875 
Q 24.21875 56 28.609375 56 
Q 40.484375 56 46.34375 49.84375 
Q 52.203125 43.703125 52.203125 31.203125 
z
" id="DejaVuSans-61"/>
      <path d="M 45.40625 46.390625 
L 45.40625 75.984375 
L 54.390625 75.984375 
L 54.390625 0 
L 45.40625 0 
L 45.40625 8.203125 
Q 42.578125 3.328125 38.25 0.953125 
Q 33.9375 -1.421875 27.875 -1.421875 
Q 17.96875 -1.421875 11.734375 6.484375 
Q 5.515625 14.40625 5.515625 27.296875 
Q 5.515625 40.1875 11.734375 48.09375 
Q 17.96875 56 27.875 56 
Q 33.9375 56 38.25 53.625 
Q 42.578125 51.265625 45.40625 46.390625 
z
M 14.796875 27.296875 
Q 14.796875 17.390625 18.875 11.75 
Q 22.953125 6.109375 30.078125 6.109375 
Q 37.203125 6.109375 41.296875 11.75 
Q 45.40625 17.390625 45.40625 27.296875 
Q 45.40625 37.203125 41.296875 42.84375 
Q 37.203125 48.484375 30.078125 48.484375 
Q 22.953125 48.484375 18.875 42.84375 
Q 14.796875 37.203125 14.796875 27.296875 
z
" id="DejaVuSans-64"/>
     </defs>
     <g transform="translate(22.254687 192.0405)rotate(-90)scale(0.1 -0.1)">
      <use xlink:href="#DejaVuSans-72"/>
      <use x="41.082031" xlink:href="#DejaVuSans-65"/>
      <use x="102.605469" xlink:href="#DejaVuSans-77"/>
      <use x="184.392578" xlink:href="#DejaVuSans-61"/>
      <use x="245.671875" xlink:href="#DejaVuSans-72"/>
      <use x="286.769531" xlink:href="#DejaVuSans-64"/>
     </g>
    </g>
   </g>
   <g id="line2d_14">
    <path clip-path="url(#pfff6171800)" d="M 73.832727 274.872018 
L 74.157707 283.682138 
L 74.482686 284.560521 
L 74.807666 284.420995 
L 75.132645 291.481773 
L 75.457625 274.649039 
L 75.782604 275.935265 
L 76.107584 280.204701 
L 76.432563 277.636454 
L 76.757543 266.866721 
L 77.082523 271.313256 
L 77.407502 280.025682 
L 77.732482 262.84695 
L 78.057461 268.419279 
L 78.382441 267.81465 
L 78.70742 265.111771 
L 79.0324 269.461579 
L 79.357379 265.228837 
L 79.682359 258.438732 
L 80.007338 260.056014 
L 80.332318 259.086529 
L 80.657297 253.692624 
L 80.982277 260.147869 
L 81.307256 246.634766 
L 81.632236 262.057364 
L 81.957215 244.921366 
L 82.282195 252.569313 
L 82.607174 248.505458 
L 82.932154 251.583419 
L 83.582113 238.364139 
L 83.907093 238.440723 
L 84.232072 248.101793 
L 84.557052 234.997987 
L 84.882031 230.938871 
L 85.207011 234.893816 
L 85.53199 230.596435 
L 85.85697 224.234024 
L 86.181949 225.902036 
L 86.506929 222.103587 
L 86.831908 229.422181 
L 87.156888 217.123368 
L 87.481867 214.286599 
L 87.806847 226.009786 
L 88.131826 217.610985 
L 88.456806 217.438862 
L 88.781785 215.222245 
L 89.756724 200.387923 
L 90.081704 191.072092 
L 90.406683 197.980873 
L 90.731663 200.640511 
L 91.056642 199.658884 
L 91.381622 185.929262 
L 91.706601 191.742871 
L 92.031581 187.638697 
L 92.35656 181.075514 
L 92.68154 188.405878 
L 93.331499 179.86723 
L 93.656478 181.087422 
L 93.981458 175.577665 
L 94.306437 174.545268 
L 94.631417 171.777566 
L 94.956396 172.385259 
L 95.281376 164.618721 
L 95.606355 161.993729 
L 95.931335 168.226684 
L 96.256314 155.209227 
L 96.581294 156.660087 
L 96.906274 155.959544 
L 97.231253 151.616679 
L 97.556233 153.355878 
L 97.881212 140.419206 
L 98.206192 146.967295 
L 98.531171 148.483281 
L 98.856151 143.993017 
L 99.18113 147.337469 
L 99.50611 137.664886 
L 99.831089 136.421339 
L 100.156069 137.856357 
L 100.481048 128.473455 
L 100.806028 132.756543 
L 101.131007 131.768529 
L 101.455987 128.814621 
L 101.780966 122.385055 
L 102.105946 121.628269 
L 102.430925 122.571715 
L 102.755905 117.23871 
L 103.080885 118.318105 
L 103.405864 125.034857 
L 103.730844 115.331274 
L 104.055823 115.362684 
L 104.380803 107.735563 
L 105.030762 114.906379 
L 105.355741 109.649106 
L 105.680721 113.287898 
L 106.0057 101.707039 
L 106.33068 104.522997 
L 106.655659 105.020774 
L 106.980639 103.620978 
L 107.305618 106.279184 
L 107.630598 98.568254 
L 107.955577 98.307708 
L 108.280557 100.287574 
L 108.605536 100.368103 
L 108.930516 105.767942 
L 109.255495 97.716815 
L 109.580475 97.42237 
L 109.905455 98.544655 
L 110.230434 95.839004 
L 110.555414 91.874325 
L 110.880393 98.143373 
L 111.205373 96.029927 
L 111.855332 86.411034 
L 112.180311 88.803287 
L 112.83027 90.767144 
L 113.15525 95.388438 
L 113.480229 91.904366 
L 113.805209 94.111706 
L 114.130188 83.57515 
L 114.780147 83.59443 
L 115.105127 88.266735 
L 115.430106 89.463019 
L 116.080066 80.658355 
L 116.405045 84.130105 
L 116.730025 83.587648 
L 117.055004 79.62193 
L 117.379984 87.038923 
L 118.029943 80.954858 
L 118.354922 80.576417 
L 118.679902 81.211332 
L 119.004881 78.098365 
L 119.329861 83.437704 
L 119.65484 83.144585 
L 119.97982 73.647685 
L 120.304799 80.965317 
L 120.629779 77.716209 
L 120.954758 79.037941 
L 121.279738 71.716018 
L 121.604717 75.671765 
L 121.929697 74.207155 
L 122.579656 69.11767 
L 122.904636 70.951813 
L 123.229615 69.641072 
L 123.554595 76.823865 
L 123.879574 74.303487 
L 124.204554 77.342744 
L 124.529533 72.584878 
L 124.854513 72.672907 
L 125.179492 73.830302 
L 125.504472 76.654171 
L 125.829451 71.122107 
L 126.154431 71.757778 
L 126.47941 73.017544 
L 126.80439 79.195685 
L 127.129369 74.951021 
L 127.454349 64.146881 
L 127.779328 72.01572 
L 128.104308 66.447081 
L 128.429287 71.458304 
L 128.754267 73.290319 
L 129.079247 72.06731 
L 129.404226 70.402181 
L 129.729206 69.566582 
L 130.054185 70.321783 
L 130.379165 67.530018 
L 130.704144 69.756601 
L 131.029124 73.840526 
L 131.354103 69.902953 
L 131.679083 71.220622 
L 132.004062 73.830069 
L 132.329042 69.410606 
L 132.654021 62.610414 
L 132.979001 68.593905 
L 133.30398 67.484691 
L 133.62896 65.475428 
L 133.953939 68.587013 
L 134.278919 66.235098 
L 134.603898 65.460907 
L 134.928878 66.192989 
L 135.253857 69.617407 
L 135.578837 68.664694 
L 135.903817 66.270863 
L 136.228796 66.714252 
L 136.553776 65.051323 
L 136.878755 61.148809 
L 137.203735 66.079825 
L 137.528714 66.539863 
L 137.853694 68.664923 
L 138.178673 66.56513 
L 138.503653 71.338502 
L 138.828632 73.095564 
L 139.153612 66.498309 
L 139.803571 71.225276 
L 140.12855 69.894105 
L 140.45353 72.376157 
L 140.778509 65.582002 
L 141.103489 67.219529 
L 141.428468 70.421998 
L 141.753448 62.932926 
L 142.078428 62.674721 
L 142.403407 66.760272 
L 142.728387 61.081524 
L 143.053366 64.465429 
L 143.378346 61.272737 
L 144.028305 66.001782 
L 144.353284 67.673096 
L 144.678264 62.978697 
L 145.003243 65.660064 
L 145.328223 63.483641 
L 145.653202 59.627343 
L 146.303161 62.803999 
L 146.95312 72.008043 
L 147.2781 64.847201 
L 147.603079 63.142895 
L 147.928059 66.258094 
L 148.253038 66.036055 
L 148.578018 61.710593 
L 148.902998 69.432987 
L 149.227977 61.391718 
L 149.552957 67.282807 
L 149.877936 64.691985 
L 150.202916 68.144538 
L 150.527895 56.806932 
L 150.852875 70.246642 
L 151.502834 59.774272 
L 151.827813 61.428338 
L 152.152793 67.172474 
L 152.802752 62.568163 
L 153.127731 68.191626 
L 153.452711 64.510465 
L 153.77769 64.920309 
L 154.10267 68.540341 
L 154.427649 69.13297 
L 154.752629 61.226453 
L 155.077609 63.164544 
L 155.402588 63.668646 
L 155.727568 65.200692 
L 156.052547 60.439287 
L 156.377527 62.140106 
L 156.702506 62.14137 
L 157.027486 61.250091 
L 157.352465 68.721199 
L 158.002424 65.335951 
L 158.327404 65.101861 
L 158.652383 61.931058 
L 159.302342 68.0193 
L 159.627322 63.74803 
L 159.952301 66.55398 
L 160.277281 61.582147 
L 160.60226 69.015126 
L 160.92724 60.045869 
L 161.252219 65.074462 
L 161.577199 60.239957 
L 161.902179 67.444826 
L 162.227158 69.238337 
L 162.552138 59.55516 
L 162.877117 59.409892 
L 163.202097 65.721931 
L 163.527076 66.787601 
L 163.852056 67.103077 
L 164.177035 64.106619 
L 164.502015 70.02751 
L 164.826994 65.323535 
L 165.151974 66.390469 
L 165.476953 66.034009 
L 165.801933 66.956631 
L 166.126912 63.957042 
L 166.451892 64.348297 
L 166.776871 60.345579 
L 167.101851 70.792333 
L 167.75181 63.370711 
L 168.07679 65.971194 
L 168.401769 64.394424 
L 168.726749 64.378177 
L 169.051728 67.109186 
L 169.376708 62.742672 
L 169.701687 61.062476 
L 170.026667 69.60436 
L 170.351646 61.599688 
L 170.676626 66.613971 
L 171.001605 61.828096 
L 171.326585 61.992295 
L 171.651564 58.368905 
L 171.976544 62.879219 
L 172.301523 58.792767 
L 172.951482 67.426274 
L 173.276462 62.263372 
L 173.601441 68.12605 
L 173.926421 62.062406 
L 174.2514 68.493684 
L 174.57638 60.324545 
L 174.90136 62.245079 
L 175.226339 65.91968 
L 175.551319 61.771578 
L 175.876298 65.050102 
L 176.201278 65.71708 
L 176.526257 62.342615 
L 176.851237 68.603365 
L 177.176216 64.440282 
L 177.501196 62.323164 
L 177.826175 63.603532 
L 178.151155 64.134799 
L 178.476134 67.054888 
L 178.801114 66.335725 
L 179.126093 66.530771 
L 179.451073 66.412249 
L 179.776052 63.859184 
L 180.101032 68.433896 
L 180.426011 69.295079 
L 180.750991 61.352687 
L 181.075971 63.117469 
L 181.40095 69.031681 
L 182.050909 63.865821 
L 182.375889 58.450754 
L 182.700868 63.96648 
L 183.025848 58.108929 
L 183.350827 65.606392 
L 183.675807 64.51845 
L 184.000786 65.730774 
L 184.325766 68.49696 
L 184.650745 65.832712 
L 184.975725 67.847224 
L 185.300704 59.703605 
L 185.625684 61.102489 
L 185.950663 59.231986 
L 186.275643 65.785631 
L 186.600622 61.58095 
L 186.925602 64.581888 
L 187.250581 61.364743 
L 187.575561 61.054384 
L 187.900541 64.072362 
L 188.22552 58.605574 
L 188.5505 61.261645 
L 188.875479 69.075545 
L 189.200459 64.641161 
L 189.525438 65.15123 
L 189.850418 63.099155 
L 190.175397 56.513622 
L 190.500377 65.10435 
L 190.825356 62.316464 
L 191.150336 64.937053 
L 191.475315 58.95964 
L 191.800295 67.019785 
L 192.125274 63.272648 
L 192.450254 63.094786 
L 192.775233 66.798594 
L 193.100213 60.21971 
L 193.425192 67.004764 
L 193.750172 62.968382 
L 194.075152 67.82548 
L 194.400131 70.649925 
L 194.725111 66.31168 
L 195.05009 64.387763 
L 195.37507 64.018562 
L 195.700049 68.410405 
L 196.025029 67.290861 
L 196.350008 64.436013 
L 196.674988 60.135096 
L 196.999967 61.364947 
L 197.324947 66.764586 
L 197.649926 58.637172 
L 197.974906 66.211504 
L 198.299885 66.658321 
L 198.624865 62.895868 
L 198.949844 67.764042 
L 199.274824 62.579484 
L 199.599803 65.191817 
L 199.924783 61.029984 
L 200.249762 69.458363 
L 200.574742 65.057954 
L 200.899722 62.736952 
L 201.224701 66.941029 
L 201.549681 59.032799 
L 201.87466 62.555644 
L 202.19964 62.058985 
L 202.524619 56.750799 
L 202.849599 61.650669 
L 203.174578 58.606365 
L 203.824537 67.37296 
L 204.149517 63.019819 
L 204.474496 68.240718 
L 204.799476 70.391048 
L 205.124455 60.192054 
L 205.449435 68.580706 
L 205.774414 61.199597 
L 206.099394 59.448624 
L 206.424373 61.187357 
L 206.749353 60.571321 
L 207.074333 57.056748 
L 207.399312 65.804327 
L 207.724292 55.560416 
L 208.049271 67.458707 
L 208.374251 67.287569 
L 208.69923 61.262094 
L 209.02421 57.76561 
L 209.349189 58.618925 
L 209.674169 59.806955 
L 209.999148 62.770689 
L 210.324128 71.507967 
L 210.649107 60.973558 
L 210.974087 61.896921 
L 211.299066 62.321798 
L 211.624046 61.292565 
L 211.949025 62.421092 
L 212.274005 59.472132 
L 212.598984 67.485715 
L 212.923964 65.547454 
L 213.248943 61.705171 
L 213.573923 64.698873 
L 213.898903 60.93453 
L 214.548862 70.393814 
L 214.873841 64.473439 
L 215.198821 64.714137 
L 215.5238 67.341035 
L 215.84878 64.173488 
L 216.173759 63.45321 
L 216.498739 61.757482 
L 216.823718 62.247205 
L 217.148698 62.004773 
L 217.798657 65.889815 
L 218.123636 58.674244 
L 218.448616 62.466435 
L 218.773595 58.366201 
L 219.423554 64.234426 
L 219.748534 56.652491 
L 220.073514 64.727057 
L 220.398493 66.788015 
L 220.723473 72.359681 
L 221.048452 65.02986 
L 221.373432 63.558794 
L 221.698411 58.856611 
L 222.023391 63.446949 
L 222.34837 66.033647 
L 222.67335 66.052733 
L 222.998329 65.478205 
L 223.323309 62.396813 
L 223.973268 65.267034 
L 224.298247 61.171392 
L 224.623227 67.495128 
L 225.273186 63.631039 
L 225.598165 59.787257 
L 225.923145 65.746736 
L 226.248124 60.10415 
L 226.573104 58.846457 
L 226.898084 62.897712 
L 227.223063 57.353577 
L 227.548043 66.189084 
L 227.873022 59.416926 
L 228.522981 65.276408 
L 228.847961 67.425322 
L 229.17294 59.526455 
L 229.49792 59.758826 
L 229.822899 61.921083 
L 230.147879 62.799144 
L 230.472858 64.372196 
L 230.797838 63.994361 
L 231.447797 70.808117 
L 231.772776 60.600025 
L 232.097756 65.097724 
L 232.422735 63.965981 
L 232.747715 63.504568 
L 233.072695 63.34442 
L 233.397674 65.374058 
L 233.722654 64.046583 
L 234.047633 58.781918 
L 234.372613 62.416282 
L 234.697592 62.565525 
L 235.022572 60.797619 
L 235.347551 63.32152 
L 235.672531 61.18066 
L 235.99751 66.492637 
L 236.32249 65.631283 
L 236.647469 64.39439 
L 236.972449 67.866084 
L 237.297428 67.676198 
L 237.947387 63.52677 
L 238.272367 63.976088 
L 238.597346 63.928525 
L 238.922326 63.021452 
L 239.247305 62.598171 
L 239.897265 61.230787 
L 240.222244 57.632214 
L 240.547224 60.25788 
L 240.872203 66.266915 
L 241.197183 65.711161 
L 241.522162 59.81074 
L 241.847142 61.775266 
L 242.172121 61.098447 
L 242.497101 69.537866 
L 243.14706 60.991565 
L 243.472039 58.447829 
L 243.797019 69.195732 
L 244.121998 59.311249 
L 244.446978 62.329215 
L 244.771957 59.211839 
L 245.096937 72.725457 
L 245.421916 71.74117 
L 245.746896 61.075115 
L 246.071876 65.997736 
L 246.396855 62.270997 
L 246.721835 62.282032 
L 247.046814 65.520449 
L 247.371794 59.55722 
L 247.696773 65.433883 
L 248.021753 61.471686 
L 248.346732 60.527992 
L 248.671712 61.839439 
L 248.996691 61.293308 
L 249.321671 68.97713 
L 249.64665 66.940535 
L 249.97163 63.871035 
L 250.296609 58.395694 
L 250.621589 57.049661 
L 250.946568 67.018367 
L 251.271548 62.934386 
L 251.596527 63.358479 
L 251.921507 64.582896 
L 252.246486 67.033757 
L 252.571466 65.514593 
L 252.896446 60.220626 
L 253.221425 68.401628 
L 253.546405 67.067578 
L 253.871384 67.446606 
L 254.521343 65.004376 
L 254.846323 65.877771 
L 255.171302 65.483314 
L 255.496282 59.582368 
L 255.821261 65.220842 
L 256.146241 62.16199 
L 256.47122 63.884426 
L 256.7962 63.506172 
L 257.121179 64.093867 
L 257.446159 63.603209 
L 257.771138 62.723098 
L 258.096118 62.909255 
L 258.421097 60.221917 
L 258.746077 62.122059 
L 259.071057 64.785539 
L 259.396036 56.403825 
L 259.721016 60.621374 
L 260.045995 69.253042 
L 260.370975 63.503737 
L 260.695954 62.703689 
L 261.020934 66.683804 
L 261.345913 63.037801 
L 261.670893 65.649677 
L 261.995872 70.360632 
L 262.320852 58.983347 
L 262.645831 60.898928 
L 262.970811 64.858726 
L 263.62077 67.741223 
L 263.945749 63.846825 
L 264.270729 66.481898 
L 264.595708 67.718977 
L 264.920688 61.382788 
L 265.245667 67.902681 
L 265.570647 62.32093 
L 265.895627 62.12252 
L 266.220606 64.124892 
L 266.545586 62.048762 
L 266.870565 66.644279 
L 267.195545 63.700013 
L 267.520524 67.953034 
L 267.845504 58.345525 
L 268.170483 61.890239 
L 268.495463 61.385457 
L 268.820442 63.423924 
L 269.145422 67.268832 
L 269.795381 59.363801 
L 270.12036 66.151206 
L 270.44534 60.133665 
L 270.770319 60.683744 
L 271.095299 64.719244 
L 271.420278 65.172989 
L 271.745258 66.342257 
L 272.395217 63.086138 
L 272.720197 63.88139 
L 273.045176 61.57637 
L 273.370156 60.144348 
L 274.020115 62.45189 
L 274.345094 61.580616 
L 274.670074 64.945602 
L 275.320033 62.465215 
L 275.645012 65.776391 
L 275.969992 56.45492 
L 276.294971 64.058056 
L 276.619951 63.962265 
L 276.94493 59.546654 
L 277.26991 64.98082 
L 277.594889 63.31541 
L 277.919869 63.806829 
L 278.244848 57.978882 
L 278.569828 62.079464 
L 278.894808 63.738684 
L 279.219787 61.380338 
L 279.544767 69.799996 
L 279.869746 59.557173 
L 280.194726 65.863123 
L 280.519705 62.467254 
L 280.844685 69.077591 
L 281.169664 62.780923 
L 281.494644 65.220399 
L 281.819623 59.922705 
L 282.144603 64.283897 
L 282.469582 60.168281 
L 282.794562 59.760673 
L 283.119541 61.643454 
L 283.444521 67.03933 
L 283.7695 62.690912 
L 284.09448 61.535535 
L 284.419459 65.29082 
L 284.744439 71.545379 
L 285.069419 61.809026 
L 285.394398 60.944661 
L 285.719378 63.676282 
L 286.044357 61.112912 
L 286.369337 64.402206 
L 287.019296 59.190414 
L 287.344275 61.691106 
L 287.669255 68.484232 
L 287.994234 59.717593 
L 288.319214 60.365402 
L 288.644193 62.491551 
L 288.969173 63.050671 
L 289.294152 65.127233 
L 289.619132 61.959866 
L 289.944111 68.051033 
L 290.269091 62.003238 
L 290.91905 62.343583 
L 291.244029 62.428004 
L 291.569009 56.68622 
L 291.893989 66.886578 
L 292.218968 60.77548 
L 292.543948 63.134455 
L 292.868927 64.416817 
L 293.193907 70.283682 
L 293.518886 59.036167 
L 294.168845 65.415122 
L 294.493825 63.340245 
L 294.818804 65.597396 
L 295.143784 61.72722 
L 295.468763 68.181311 
L 295.793743 65.521681 
L 296.118722 60.146227 
L 296.443702 64.110097 
L 296.768681 64.071938 
L 297.093661 66.279476 
L 297.41864 63.174132 
L 297.74362 63.824702 
L 298.0686 67.220822 
L 298.393579 63.405005 
L 298.718559 56.125876 
L 299.043538 56.73418 
L 299.693497 67.368865 
L 300.343456 66.33944 
L 301.318395 59.082668 
L 301.643374 64.657189 
L 301.968354 60.197825 
L 302.293333 63.303765 
L 302.618313 59.315063 
L 302.943292 64.504705 
L 303.268272 66.108732 
L 303.593251 61.154293 
L 303.918231 63.564181 
L 304.24321 55.70056 
L 304.56819 59.518821 
L 304.89317 66.327175 
L 305.218149 65.498793 
L 305.543129 62.40674 
L 305.868108 65.928953 
L 306.193088 66.402112 
L 306.518067 59.39307 
L 306.843047 66.534439 
L 307.168026 56.428579 
L 307.493006 62.44427 
L 307.817985 61.133263 
L 308.142965 59.193169 
L 308.467944 69.615476 
L 308.792924 62.851896 
L 309.117903 67.39957 
L 309.442883 63.173801 
L 309.767862 61.789211 
L 310.092842 56.439178 
L 310.417821 66.959869 
L 310.742801 61.001529 
L 311.067781 62.929857 
L 311.39276 61.886694 
L 311.71774 66.115218 
L 312.042719 63.232321 
L 312.367699 64.482621 
L 312.692678 63.581407 
L 313.017658 70.384369 
L 313.342637 61.232203 
L 313.667617 65.922765 
L 313.992596 62.983053 
L 314.317576 62.811916 
L 314.642555 65.727872 
L 314.967535 66.506376 
L 315.292514 59.34762 
L 315.617494 61.115571 
L 315.942473 65.429758 
L 316.267453 60.239154 
L 316.592432 66.231269 
L 316.917412 61.334059 
L 317.242391 63.257473 
L 317.567371 58.278983 
L 317.892351 59.689199 
L 318.21733 65.688709 
L 318.54231 60.027679 
L 318.867289 64.733063 
L 319.192269 63.717713 
L 319.517248 64.593162 
L 319.842228 67.265736 
L 320.167207 66.146788 
L 320.492187 63.101953 
L 321.142146 60.845512 
L 321.792105 66.120281 
L 322.117084 59.789567 
L 322.442064 60.734325 
L 322.767043 64.07504 
L 323.092023 58.703846 
L 323.417002 62.21229 
L 323.741982 60.557052 
L 324.066962 57.638042 
L 324.391941 64.367213 
L 324.716921 64.466179 
L 325.0419 66.360092 
L 325.36688 63.266064 
L 325.691859 64.665985 
L 326.341818 60.290512 
L 326.666798 59.992147 
L 326.991777 58.756602 
L 327.316757 66.590113 
L 327.641736 54.4416 
L 327.966716 62.382612 
L 328.291695 63.856826 
L 328.616675 56.094013 
L 328.941654 68.652976 
L 329.266634 65.080051 
L 329.591613 63.606348 
L 329.916593 71.362813 
L 330.241572 66.98712 
L 330.566552 66.569111 
L 330.891532 61.483061 
L 331.216511 62.263007 
L 331.86647 68.24261 
L 332.19145 65.004285 
L 332.516429 63.926288 
L 332.841409 69.220886 
L 333.491368 53.568 
L 333.816347 59.518653 
L 334.141327 60.420188 
L 334.466306 60.922506 
L 334.791286 67.050718 
L 335.441245 59.369176 
L 335.766224 69.392976 
L 336.091204 61.639304 
L 336.416183 58.683692 
L 336.741163 63.999427 
L 337.066143 62.866324 
L 337.391122 58.652248 
L 337.716102 66.826458 
L 338.041081 70.649877 
L 338.366061 67.93947 
L 338.69104 58.430065 
L 339.01602 63.835462 
L 339.340999 61.18714 
L 339.665979 61.207095 
L 339.990958 61.0252 
L 340.315938 63.483271 
L 340.640917 68.106633 
L 340.965897 57.460756 
L 341.290876 65.62727 
L 341.615856 65.260783 
L 341.940835 67.251939 
L 342.265815 62.956852 
L 342.590794 67.306198 
L 343.240753 59.825855 
L 343.890713 63.551588 
L 344.540672 61.721336 
L 345.51561 67.8781 
L 345.84059 67.903326 
L 346.165569 61.201724 
L 346.490549 67.963428 
L 346.815528 65.644076 
L 347.140508 64.199325 
L 347.465487 66.350757 
L 347.790467 60.933024 
L 348.115446 70.380305 
L 348.440426 66.075729 
L 348.765405 64.027418 
L 349.090385 63.025793 
L 349.415364 63.592804 
L 349.740344 60.952441 
L 350.065324 66.308722 
L 350.390303 68.226995 
L 350.715283 66.341891 
L 351.040262 61.193266 
L 351.365242 60.131335 
L 351.690221 65.585761 
L 352.015201 64.582684 
L 352.34018 60.864463 
L 352.66516 67.207221 
L 352.990139 56.242456 
L 353.315119 62.654245 
L 353.640098 62.247766 
L 353.965078 58.965982 
L 354.290057 61.682975 
L 354.615037 62.982301 
L 354.940016 66.715259 
L 355.264996 68.552072 
L 355.589975 63.168576 
L 355.914955 63.058857 
L 356.239934 65.857787 
L 356.564914 64.141943 
L 356.889894 69.489004 
L 357.214873 59.337034 
L 357.539853 60.845514 
L 357.864832 66.910538 
L 358.514791 58.361789 
L 358.839771 64.015141 
L 359.16475 62.752809 
L 359.48973 64.431337 
L 359.814709 61.947376 
L 360.139689 63.40364 
L 360.464668 59.394303 
L 360.789648 64.868528 
L 361.114627 63.286606 
L 361.439607 60.136516 
L 361.764586 71.483917 
L 362.089566 61.428727 
L 362.414545 65.751089 
L 362.739525 65.107543 
L 363.064505 62.735629 
L 363.389484 66.743566 
L 363.714464 62.579792 
L 364.039443 62.838525 
L 364.364423 59.353445 
L 364.689402 65.818506 
L 365.014382 63.38954 
L 365.339361 59.291531 
L 365.98932 64.224348 
L 366.3143 61.860023 
L 366.639279 65.573798 
L 366.964259 67.231383 
L 367.289238 66.431584 
L 367.614218 64.412248 
L 367.939197 69.325334 
L 368.264177 62.730242 
L 368.589156 62.417493 
L 368.914136 62.564492 
L 369.239115 61.162938 
L 369.564095 65.334701 
L 369.889075 61.553292 
L 370.214054 60.536532 
L 370.539034 62.904983 
L 370.864013 67.793532 
L 371.188993 57.497393 
L 371.513972 59.979601 
L 371.838952 65.830189 
L 372.163931 59.123436 
L 372.488911 64.363855 
L 372.81389 66.076888 
L 373.13887 60.287252 
L 373.463849 61.578169 
L 373.788829 64.209122 
L 374.113808 61.937681 
L 374.438788 61.934961 
L 374.763767 67.337915 
L 375.088747 61.722049 
L 375.413726 66.101122 
L 375.738706 62.35657 
L 376.063686 54.541175 
L 376.388665 63.459133 
L 376.713645 59.982553 
L 377.038624 63.878744 
L 377.363604 60.743029 
L 377.688583 66.458082 
L 378.013563 56.070878 
L 378.338542 66.349083 
L 378.663522 64.959927 
L 378.988501 58.10976 
L 379.63846 69.84226 
L 380.613399 62.596964 
L 380.938378 64.950451 
L 381.263358 62.330316 
L 381.588337 62.889001 
L 381.913317 57.961938 
L 382.238296 63.476415 
L 382.563276 59.455417 
L 383.213235 67.716364 
L 383.538215 58.686101 
L 383.863194 59.890201 
L 384.188174 69.287178 
L 384.513153 64.560382 
L 384.838133 62.14208 
L 385.163112 62.962912 
L 385.488092 62.151062 
L 386.138051 66.555714 
L 386.46303 61.875171 
L 386.78801 60.262421 
L 387.437969 65.336265 
L 387.762948 61.444849 
L 388.412907 66.943303 
L 388.737887 65.828806 
L 389.062867 57.881694 
L 389.387846 64.64036 
L 389.712826 64.168618 
L 390.037805 65.267422 
L 390.362785 63.963349 
L 390.687764 58.960357 
L 391.012744 68.526495 
L 391.337723 60.468022 
L 391.662703 61.756866 
L 391.987682 60.900337 
L 392.312662 68.683375 
L 392.637641 63.912905 
L 392.962621 64.952155 
L 393.2876 65.404443 
L 393.61258 64.740835 
L 393.937559 64.904293 
L 394.262539 60.217338 
L 394.587518 61.045478 
L 394.912498 62.866747 
L 395.237477 61.102851 
L 395.562457 68.060277 
L 395.887437 57.610592 
L 396.212416 63.453502 
L 396.537396 60.527011 
L 396.862375 62.983199 
L 397.187355 57.797013 
L 397.512334 64.806528 
L 397.837314 61.18282 
L 398.162293 61.280505 
L 398.487273 64.331711 
L 398.487273 64.331711 
" style="fill:none;stroke:#ff0000;stroke-linecap:square;stroke-width:0.6;"/>
   </g>
   <g id="line2d_15">
    <path clip-path="url(#pfff6171800)" d="M 73.832727 289.855154 
L 74.157707 295.488 
L 74.482686 277.678664 
L 74.807666 279.084381 
L 75.132645 265.844773 
L 75.457625 266.096918 
L 75.782604 255.663185 
L 76.107584 253.995419 
L 76.432563 249.776396 
L 76.757543 241.621565 
L 77.082523 242.029428 
L 77.407502 226.652615 
L 77.732482 223.516012 
L 78.382441 207.741146 
L 78.70742 202.398278 
L 79.0324 191.67708 
L 79.682359 181.200733 
L 80.657297 160.380977 
L 81.307256 149.09642 
L 81.632236 140.765425 
L 81.957215 143.66873 
L 82.282195 141.292571 
L 82.607174 131.477824 
L 82.932154 133.274357 
L 83.257133 122.970904 
L 83.582113 125.884907 
L 83.907093 121.326036 
L 84.232072 110.215577 
L 84.557052 121.352587 
L 84.882031 112.543879 
L 85.207011 110.638302 
L 85.53199 105.863463 
L 85.85697 104.293452 
L 86.181949 105.191689 
L 86.506929 109.670014 
L 86.831908 99.66102 
L 87.156888 104.22092 
L 87.481867 105.329693 
L 87.806847 90.91742 
L 88.131826 104.097264 
L 88.456806 99.096146 
L 88.781785 98.179685 
L 89.106765 98.95643 
L 89.431744 91.92545 
L 89.756724 95.595796 
L 90.081704 94.7621 
L 90.406683 97.543776 
L 90.731663 96.087447 
L 91.381622 88.814959 
L 91.706601 95.844171 
L 92.031581 84.102489 
L 92.35656 88.74434 
L 92.68154 86.868174 
L 93.006519 93.752898 
L 93.331499 93.949273 
L 93.656478 85.373896 
L 93.981458 93.514805 
L 94.306437 88.998175 
L 94.631417 81.90084 
L 94.956396 90.649716 
L 95.281376 91.281353 
L 95.931335 80.519294 
L 96.256314 92.787244 
L 96.581294 86.559094 
L 96.906274 83.890629 
L 97.231253 82.339 
L 97.556233 88.388313 
L 97.881212 83.921329 
L 98.206192 83.647943 
L 98.531171 91.0646 
L 98.856151 82.347631 
L 99.18113 87.886172 
L 99.50611 78.636165 
L 99.831089 80.764191 
L 100.156069 82.01685 
L 100.481048 90.626049 
L 100.806028 89.021188 
L 101.131007 83.005839 
L 101.455987 84.396253 
L 101.780966 84.188127 
L 102.105946 89.287306 
L 102.430925 85.825769 
L 102.755905 80.564927 
L 103.080885 85.029402 
L 103.405864 81.76222 
L 103.730844 83.4719 
L 104.055823 84.068521 
L 104.380803 86.305596 
L 104.705782 82.796004 
L 105.030762 87.24989 
L 105.355741 85.98348 
L 105.680721 81.108392 
L 106.0057 87.473032 
L 106.33068 78.950264 
L 106.655659 83.438707 
L 106.980639 82.303647 
L 107.305618 86.714065 
L 107.630598 81.004262 
L 107.955577 80.704468 
L 108.280557 85.81706 
L 108.605536 79.522101 
L 108.930516 84.102204 
L 109.255495 80.050198 
L 109.580475 84.178476 
L 109.905455 85.412358 
L 110.555414 76.259743 
L 110.880393 83.669865 
L 111.205373 79.242166 
L 112.180311 85.746511 
L 112.505291 85.40453 
L 112.83027 80.725986 
L 113.15525 88.25715 
L 113.480229 83.822112 
L 113.805209 81.563732 
L 114.130188 85.458513 
L 114.455168 82.500744 
L 114.780147 78.073569 
L 115.105127 80.552732 
L 115.430106 78.139858 
L 115.755086 86.424568 
L 116.080066 83.154645 
L 116.405045 82.483201 
L 116.730025 82.513542 
L 117.055004 75.271686 
L 117.379984 81.925266 
L 117.704963 84.801337 
L 118.029943 80.463545 
L 118.354922 83.142911 
L 118.679902 83.22911 
L 119.004881 79.14335 
L 119.329861 83.216748 
L 119.65484 79.431954 
L 119.97982 77.888819 
L 120.629779 86.967905 
L 120.954758 85.217621 
L 121.279738 82.806037 
L 121.604717 81.617187 
L 121.929697 84.403027 
L 122.254676 85.839159 
L 122.904636 80.03143 
L 123.229615 75.884955 
L 123.554595 84.013991 
L 123.879574 84.311067 
L 124.204554 89.352939 
L 124.529533 86.10775 
L 124.854513 84.655901 
L 125.179492 76.51609 
L 125.504472 79.148574 
L 125.829451 84.346111 
L 126.154431 83.184576 
L 126.80439 85.940532 
L 127.129369 82.4818 
L 127.454349 89.425611 
L 127.779328 82.901411 
L 128.104308 79.717545 
L 128.429287 80.152739 
L 128.754267 90.523549 
L 129.079247 83.055076 
L 129.404226 81.595727 
L 129.729206 85.269733 
L 130.054185 85.720274 
L 130.379165 82.048315 
L 130.704144 84.859173 
L 131.029124 80.138239 
L 131.354103 84.551549 
L 131.679083 76.554405 
L 132.004062 80.448193 
L 132.329042 87.69782 
L 132.979001 75.410179 
L 133.30398 83.108249 
L 133.62896 83.635777 
L 133.953939 79.659951 
L 134.278919 83.176031 
L 134.603898 79.882559 
L 134.928878 78.631732 
L 135.253857 81.022535 
L 135.578837 79.81136 
L 135.903817 85.370859 
L 136.228796 76.059541 
L 136.553776 84.315188 
L 136.878755 84.882999 
L 137.203735 76.910552 
L 137.528714 82.033557 
L 137.853694 81.63131 
L 138.178673 84.251278 
L 138.503653 81.702534 
L 138.828632 85.281973 
L 139.153612 77.30758 
L 139.478591 86.913774 
L 140.12855 82.653832 
L 140.45353 86.554854 
L 140.778509 81.407712 
L 141.103489 80.929883 
L 141.428468 82.632678 
L 141.753448 85.411273 
L 142.078428 84.054897 
L 142.403407 81.428113 
L 142.728387 76.524394 
L 143.053366 78.724997 
L 143.378346 81.889126 
L 143.703325 77.534916 
L 144.028305 80.102423 
L 144.353284 86.843388 
L 144.678264 81.804679 
L 145.003243 80.006635 
L 145.328223 90.616209 
L 145.653202 83.507106 
L 145.978182 83.185658 
L 146.303161 85.793334 
L 146.628141 80.009304 
L 146.95312 85.322912 
L 147.2781 83.28381 
L 147.603079 87.344522 
L 147.928059 78.644573 
L 148.253038 83.095913 
L 148.578018 82.826661 
L 148.902998 83.84608 
L 149.227977 83.1845 
L 149.552957 86.745866 
L 149.877936 81.357 
L 150.202916 84.439944 
L 150.527895 78.215056 
L 150.852875 83.291038 
L 151.177854 85.357993 
L 151.502834 82.000377 
L 151.827813 83.584299 
L 152.152793 82.172845 
L 152.477772 78.844733 
L 152.802752 81.456395 
L 153.127731 75.69921 
L 153.452711 83.243594 
L 153.77769 81.168891 
L 154.10267 84.791701 
L 154.427649 84.636937 
L 154.752629 81.466527 
L 155.077609 86.96318 
L 155.402588 86.970816 
L 155.727568 84.927434 
L 156.052547 81.549926 
L 156.377527 87.539463 
L 156.702506 80.12281 
L 157.027486 78.242557 
L 157.352465 80.697259 
L 157.677445 76.700679 
L 158.002424 77.917928 
L 158.327404 84.055897 
L 158.652383 76.195427 
L 158.977363 83.830918 
L 159.302342 83.87513 
L 159.627322 79.38661 
L 159.952301 82.526477 
L 160.277281 78.366862 
L 160.60226 79.160056 
L 160.92724 87.72412 
L 161.252219 86.518815 
L 161.577199 88.974344 
L 161.902179 87.065669 
L 162.227158 79.203301 
L 162.552138 87.413255 
L 162.877117 80.860003 
L 163.202097 83.606802 
L 163.527076 85.174667 
L 163.852056 80.317607 
L 164.177035 86.560493 
L 164.502015 82.093746 
L 164.826994 82.004828 
L 165.151974 81.122247 
L 165.476953 81.660574 
L 165.801933 80.484742 
L 166.126912 82.607916 
L 166.451892 87.678707 
L 166.776871 81.359908 
L 167.101851 82.403076 
L 167.42683 80.171228 
L 167.75181 79.935415 
L 168.07679 79.101982 
L 168.401769 80.399883 
L 168.726749 84.856312 
L 169.051728 82.102309 
L 169.376708 91.125101 
L 169.701687 80.513045 
L 170.026667 78.001707 
L 170.351646 87.258022 
L 170.676626 86.531232 
L 171.001605 82.071767 
L 171.326585 81.90671 
L 171.651564 80.68353 
L 171.976544 81.863483 
L 172.301523 85.579661 
L 172.626503 77.398903 
L 172.951482 84.685571 
L 173.276462 81.199686 
L 173.601441 83.582597 
L 173.926421 84.011431 
L 174.2514 82.427926 
L 174.57638 81.833394 
L 174.90136 78.871389 
L 175.226339 80.572117 
L 175.551319 80.372191 
L 175.876298 78.056092 
L 176.201278 82.380813 
L 176.526257 82.229481 
L 176.851237 86.435501 
L 177.176216 83.704296 
L 177.501196 79.772163 
L 177.826175 86.887613 
L 178.151155 87.98546 
L 178.476134 83.128975 
L 178.801114 81.930979 
L 179.126093 81.90874 
L 179.776052 84.297601 
L 180.101032 79.045594 
L 180.426011 82.063309 
L 180.750991 78.85757 
L 181.075971 81.911997 
L 181.40095 86.065048 
L 181.72593 76.830543 
L 182.050909 76.726414 
L 182.375889 76.183184 
L 182.700868 86.642782 
L 183.025848 84.922784 
L 183.350827 80.148298 
L 183.675807 84.477692 
L 184.000786 81.557458 
L 184.325766 84.83974 
L 184.650745 77.451985 
L 184.975725 86.551223 
L 185.300704 87.931694 
L 185.625684 76.772217 
L 185.950663 84.288478 
L 186.275643 86.295404 
L 186.600622 85.612311 
L 186.925602 89.067654 
L 187.250581 81.635168 
L 187.575561 83.715963 
L 187.900541 86.848473 
L 188.22552 81.020382 
L 188.5505 88.879415 
L 188.875479 78.586091 
L 189.200459 80.935749 
L 189.525438 80.613576 
L 189.850418 84.790782 
L 190.175397 84.768506 
L 190.500377 74.944586 
L 190.825356 78.851697 
L 191.150336 79.929028 
L 191.475315 82.00823 
L 191.800295 87.889267 
L 192.125274 78.07547 
L 192.450254 82.928689 
L 192.775233 82.701805 
L 193.100213 77.42043 
L 193.750172 84.438388 
L 194.075152 78.844772 
L 194.725111 83.101232 
L 195.37507 76.924999 
L 195.700049 82.270443 
L 196.025029 82.090389 
L 196.350008 84.796846 
L 196.674988 79.804905 
L 196.999967 80.403504 
L 197.324947 82.868499 
L 197.649926 81.660694 
L 197.974906 84.097583 
L 198.299885 83.030333 
L 198.624865 83.896999 
L 199.274824 80.189086 
L 199.599803 85.161251 
L 199.924783 79.015318 
L 200.249762 87.797649 
L 200.574742 77.244862 
L 200.899722 76.707762 
L 201.224701 90.617857 
L 201.549681 76.857926 
L 201.87466 85.665065 
L 202.19964 81.69918 
L 202.524619 81.57908 
L 202.849599 82.560905 
L 203.174578 78.213333 
L 203.499558 85.732508 
L 203.824537 82.405155 
L 204.149517 82.241129 
L 204.474496 81.067236 
L 204.799476 79.212844 
L 205.124455 84.534731 
L 205.449435 77.819103 
L 205.774414 78.749659 
L 206.099394 85.118757 
L 206.424373 77.768806 
L 206.749353 86.076331 
L 207.074333 85.901926 
L 207.399312 83.275829 
L 207.724292 84.24658 
L 208.049271 86.620363 
L 208.374251 80.084725 
L 208.69923 83.45672 
L 209.02421 78.164666 
L 209.674169 85.265827 
L 209.999148 76.634035 
L 210.324128 81.677722 
L 210.649107 80.599216 
L 210.974087 84.458076 
L 211.299066 86.339086 
L 211.624046 85.455163 
L 211.949025 85.980762 
L 212.274005 83.980824 
L 212.598984 79.336499 
L 212.923964 83.632334 
L 213.248943 82.716951 
L 213.573923 86.220216 
L 213.898903 80.376926 
L 214.223882 83.419297 
L 214.548862 76.376531 
L 214.873841 84.003302 
L 215.198821 82.92008 
L 215.5238 78.673878 
L 216.173759 86.482337 
L 216.823718 80.105783 
L 217.148698 83.549086 
L 217.473677 81.620932 
L 218.123636 86.730254 
L 218.773595 77.430987 
L 219.098575 79.360828 
L 219.423554 79.948559 
L 219.748534 85.937314 
L 220.073514 81.637342 
L 220.723473 77.325501 
L 221.048452 79.295173 
L 221.373432 78.087739 
L 221.698411 77.816833 
L 222.023391 87.162113 
L 222.34837 81.079343 
L 222.67335 78.440378 
L 222.998329 82.402572 
L 223.323309 79.988334 
L 223.648288 88.497336 
L 223.973268 77.402923 
L 224.298247 82.736705 
L 224.623227 83.867403 
L 224.948206 84.081177 
L 225.273186 86.331825 
L 225.598165 81.642434 
L 225.923145 85.792357 
L 226.248124 85.286601 
L 226.573104 86.323998 
L 226.898084 85.679141 
L 227.223063 76.623219 
L 227.548043 86.733303 
L 227.873022 84.21254 
L 228.198002 80.726742 
L 228.522981 79.134838 
L 229.17294 81.21775 
L 229.49792 83.390418 
L 229.822899 82.999353 
L 230.472858 77.426218 
L 230.797838 86.38121 
L 231.122817 83.367393 
L 231.447797 81.455298 
L 231.772776 78.251933 
L 232.097756 78.176785 
L 232.422735 78.856141 
L 232.747715 76.566322 
L 233.722654 84.515916 
L 234.047633 85.657751 
L 234.372613 77.940036 
L 234.697592 82.635118 
L 235.022572 76.052159 
L 235.347551 81.114618 
L 235.672531 82.986279 
L 235.99751 80.825307 
L 236.32249 81.071577 
L 236.647469 83.941139 
L 236.972449 82.544048 
L 237.297428 84.787495 
L 237.622408 80.632805 
L 237.947387 80.300274 
L 238.272367 78.749377 
L 238.597346 81.028153 
L 238.922326 77.348991 
L 239.247305 85.462458 
L 239.572285 78.953537 
L 239.897265 78.789055 
L 240.222244 83.976098 
L 240.547224 80.849014 
L 240.872203 79.774819 
L 241.197183 82.762261 
L 241.522162 78.569526 
L 241.847142 84.025806 
L 242.172121 85.833582 
L 242.497101 82.309681 
L 242.82208 83.006694 
L 243.14706 79.313567 
L 243.472039 81.215963 
L 243.797019 86.833989 
L 244.121998 84.583615 
L 244.446978 83.906915 
L 244.771957 81.57208 
L 245.096937 81.416776 
L 245.421916 82.450148 
L 245.746896 78.888894 
L 246.071876 83.204775 
L 246.396855 81.298427 
L 246.721835 83.043366 
L 247.046814 80.156138 
L 247.371794 83.158946 
L 247.696773 80.537649 
L 248.021753 83.436545 
L 248.346732 77.57257 
L 248.671712 79.61211 
L 248.996691 91.032306 
L 249.321671 80.691992 
L 249.97163 90.336993 
L 250.946568 74.869537 
L 251.271548 80.217347 
L 251.596527 81.081054 
L 251.921507 83.725469 
L 252.571466 81.562036 
L 252.896446 75.930868 
L 253.221425 84.246525 
L 253.546405 79.976024 
L 253.871384 83.469445 
L 254.196364 80.736451 
L 254.521343 82.223975 
L 254.846323 78.048423 
L 255.171302 78.069712 
L 255.496282 86.05022 
L 255.821261 84.245316 
L 256.47122 76.57949 
L 256.7962 83.646027 
L 257.121179 86.166188 
L 257.446159 77.354938 
L 257.771138 82.156515 
L 258.096118 78.683982 
L 258.421097 87.0698 
L 258.746077 84.132233 
L 259.071057 79.719343 
L 259.396036 80.590906 
L 259.721016 82.440671 
L 260.045995 77.156651 
L 260.370975 80.108322 
L 260.695954 78.502969 
L 261.020934 80.393828 
L 261.670893 82.937688 
L 261.995872 82.186789 
L 262.320852 82.971602 
L 262.645831 77.383124 
L 262.970811 82.416518 
L 263.29579 78.169886 
L 263.62077 80.832528 
L 263.945749 77.410608 
L 264.270729 80.962656 
L 264.595708 79.812971 
L 264.920688 84.828903 
L 265.245667 83.835375 
L 265.570647 80.306578 
L 265.895627 80.551281 
L 266.220606 76.950622 
L 266.545586 81.758052 
L 266.870565 77.037295 
L 267.520524 84.347642 
L 267.845504 81.595826 
L 268.170483 83.316597 
L 268.495463 84.100913 
L 268.820442 81.127718 
L 269.145422 81.769333 
L 269.470401 81.155531 
L 269.795381 73.603726 
L 270.12036 82.1586 
L 270.44534 81.577642 
L 270.770319 75.575187 
L 271.095299 82.506553 
L 271.420278 81.202033 
L 271.745258 87.972254 
L 272.070238 75.832952 
L 272.395217 83.277552 
L 272.720197 86.3312 
L 273.045176 76.774062 
L 273.370156 78.32182 
L 273.695135 83.918272 
L 274.020115 85.213295 
L 274.345094 83.130443 
L 274.670074 90.013976 
L 274.995053 79.045414 
L 275.320033 80.468786 
L 275.645012 83.484803 
L 275.969992 83.142586 
L 276.294971 75.881165 
L 276.619951 83.506522 
L 276.94493 87.073457 
L 277.26991 84.838303 
L 277.594889 84.162576 
L 277.919869 78.236058 
L 278.244848 79.857774 
L 278.569828 78.451001 
L 278.894808 80.371231 
L 279.219787 85.649937 
L 279.869746 79.634286 
L 280.194726 80.585054 
L 280.519705 80.43853 
L 280.844685 88.636269 
L 281.819623 80.433947 
L 282.144603 80.114701 
L 282.469582 79.075935 
L 282.794562 81.265545 
L 283.119541 85.841426 
L 283.7695 79.2893 
L 284.09448 85.653745 
L 284.419459 78.312844 
L 284.744439 86.258189 
L 285.069419 84.809423 
L 285.394398 78.000636 
L 286.044357 87.471995 
L 286.369337 77.490631 
L 286.694316 78.26989 
L 287.019296 85.904132 
L 287.344275 83.964674 
L 287.669255 86.653273 
L 287.994234 71.427099 
L 288.319214 82.442186 
L 288.644193 78.791211 
L 288.969173 78.287209 
L 289.294152 73.767106 
L 289.619132 81.425357 
L 289.944111 81.296062 
L 290.269091 79.368359 
L 290.59407 78.748255 
L 290.91905 81.260156 
L 291.244029 81.678014 
L 291.569009 82.615186 
L 291.893989 81.004636 
L 292.218968 80.622377 
L 292.543948 85.252035 
L 292.868927 77.798904 
L 293.193907 79.745632 
L 293.518886 79.299239 
L 293.843866 91.729584 
L 294.493825 82.640092 
L 294.818804 80.004133 
L 295.143784 85.672569 
L 295.468763 82.750769 
L 295.793743 86.256831 
L 296.118722 84.338129 
L 296.443702 77.765824 
L 297.41864 83.408628 
L 297.74362 83.397972 
L 298.0686 75.536073 
L 298.393579 79.173284 
L 298.718559 81.454137 
L 299.043538 72.965624 
L 299.368518 79.758547 
L 299.693497 78.263275 
L 300.018477 78.043235 
L 300.343456 83.83048 
L 300.668436 83.889651 
L 300.993415 79.587315 
L 301.318395 77.985145 
L 301.643374 81.198382 
L 301.968354 79.533043 
L 302.293333 83.136899 
L 302.618313 77.287044 
L 302.943292 80.337013 
L 303.268272 80.237515 
L 303.593251 82.596714 
L 303.918231 77.278437 
L 304.24321 78.229001 
L 304.56819 86.695816 
L 304.89317 77.388267 
L 305.218149 79.444982 
L 305.543129 75.874023 
L 305.868108 83.494673 
L 306.193088 83.3396 
L 306.518067 84.76451 
L 306.843047 78.599047 
L 307.168026 79.5541 
L 307.493006 78.657379 
L 307.817985 79.6749 
L 308.142965 81.760837 
L 308.467944 80.589217 
L 308.792924 85.613708 
L 309.117903 81.087672 
L 309.442883 81.861014 
L 309.767862 83.394014 
L 310.092842 79.251311 
L 310.417821 89.491907 
L 310.742801 82.378257 
L 311.067781 88.055248 
L 311.39276 78.694007 
L 311.71774 77.707758 
L 312.042719 80.641623 
L 312.367699 84.985419 
L 312.692678 81.132968 
L 313.017658 79.041556 
L 313.342637 83.781162 
L 313.667617 79.188036 
L 313.992596 86.753983 
L 314.317576 74.02251 
L 314.642555 82.627605 
L 314.967535 75.992642 
L 315.292514 81.575836 
L 315.617494 81.195664 
L 315.942473 81.506151 
L 316.267453 79.197727 
L 316.917412 82.702537 
L 317.242391 79.596069 
L 317.567371 82.604857 
L 317.892351 75.991145 
L 318.21733 75.350031 
L 318.867289 79.886273 
L 319.192269 80.008086 
L 319.517248 80.471532 
L 319.842228 77.909879 
L 320.167207 76.516942 
L 320.492187 81.905854 
L 320.817166 73.116746 
L 321.142146 80.08138 
L 321.467125 82.944718 
L 321.792105 75.138194 
L 322.117084 79.616394 
L 322.442064 82.096949 
L 322.767043 80.383555 
L 323.092023 83.346587 
L 323.417002 79.350211 
L 323.741982 77.703776 
L 324.066962 87.531922 
L 324.716921 77.563642 
L 325.36688 83.946917 
L 325.691859 81.03516 
L 326.016839 83.243827 
L 326.341818 80.331814 
L 326.666798 74.864521 
L 326.991777 80.336396 
L 327.316757 78.118167 
L 327.641736 81.742579 
L 327.966716 76.692113 
L 328.291695 77.097153 
L 328.616675 85.957994 
L 328.941654 76.283982 
L 329.266634 76.866464 
L 329.591613 81.897249 
L 329.916593 82.546554 
L 330.241572 80.564153 
L 330.566552 79.866944 
L 330.891532 75.65664 
L 331.216511 79.831325 
L 331.541491 80.313241 
L 332.19145 86.678888 
L 332.516429 80.02758 
L 332.841409 79.375334 
L 333.166388 81.457164 
L 334.141327 78.873808 
L 334.466306 78.058213 
L 335.116265 84.417041 
L 335.441245 77.835138 
L 335.766224 88.792612 
L 336.091204 79.686728 
L 336.416183 78.514117 
L 336.741163 73.723664 
L 337.066143 80.530625 
L 337.391122 79.707863 
L 337.716102 77.154571 
L 338.041081 78.506933 
L 338.366061 86.863285 
L 338.69104 76.187855 
L 339.01602 76.972812 
L 339.340999 82.840535 
L 339.665979 83.145594 
L 339.990958 78.887057 
L 340.315938 81.848558 
L 340.640917 79.154263 
L 340.965897 77.50149 
L 341.290876 83.886518 
L 341.615856 70.350828 
L 341.940835 76.407153 
L 342.265815 75.739516 
L 342.590794 81.379359 
L 342.915774 82.272251 
L 343.565733 78.551651 
L 343.890713 85.007736 
L 344.215692 76.80782 
L 344.540672 77.109218 
L 344.865651 73.157237 
L 345.190631 80.090343 
L 345.51561 70.987048 
L 345.84059 82.832076 
L 346.165569 76.964375 
L 346.490549 78.309527 
L 346.815528 75.131323 
L 347.140508 81.725529 
L 347.465487 77.556624 
L 347.790467 76.681224 
L 348.115446 81.730678 
L 348.440426 79.688073 
L 349.090385 83.251506 
L 349.415364 84.158014 
L 349.740344 78.600511 
L 350.065324 80.473914 
L 350.390303 80.861235 
L 350.715283 73.549656 
L 351.040262 83.741105 
L 351.365242 79.605062 
L 351.690221 84.219776 
L 352.015201 76.315168 
L 352.34018 76.068065 
L 353.315119 82.578121 
L 353.640098 80.194488 
L 353.965078 72.456193 
L 354.290057 79.218599 
L 354.615037 80.630393 
L 354.940016 72.981514 
L 355.264996 83.350473 
L 355.589975 77.138314 
L 355.914955 77.700234 
L 356.239934 78.505807 
L 356.564914 79.827939 
L 356.889894 77.90006 
L 357.214873 77.711647 
L 357.539853 80.907568 
L 357.864832 81.802339 
L 358.189812 78.647683 
L 358.514791 77.25723 
L 358.839771 81.927196 
L 359.16475 80.471934 
L 359.48973 77.222987 
L 359.814709 79.616141 
L 360.139689 85.039969 
L 360.464668 83.485225 
L 360.789648 76.839912 
L 361.114627 76.743776 
L 361.439607 84.30408 
L 361.764586 75.53693 
L 362.089566 83.292331 
L 362.414545 73.709536 
L 362.739525 80.588808 
L 363.064505 78.257194 
L 363.389484 80.01461 
L 363.714464 76.331004 
L 364.039443 75.923492 
L 364.364423 83.075319 
L 364.689402 81.024704 
L 365.014382 81.307984 
L 365.339361 83.168191 
L 365.664341 83.622741 
L 365.98932 79.41274 
L 366.3143 79.721417 
L 366.639279 83.023659 
L 366.964259 84.127647 
L 367.289238 81.904742 
L 367.614218 77.866733 
L 368.589156 75.548092 
L 369.239115 79.629542 
L 369.564095 79.182245 
L 369.889075 81.661685 
L 370.214054 76.238108 
L 370.539034 79.416442 
L 370.864013 83.829919 
L 371.188993 76.79294 
L 371.513972 82.082407 
L 371.838952 84.135187 
L 372.163931 75.336692 
L 372.488911 83.348998 
L 372.81389 79.509071 
L 373.13887 79.022207 
L 373.463849 80.462052 
L 373.788829 78.645091 
L 374.113808 82.704065 
L 374.763767 76.739474 
L 375.088747 76.464981 
L 375.413726 76.416151 
L 375.738706 80.808708 
L 376.063686 82.072116 
L 376.713645 78.864692 
L 377.038624 80.224238 
L 377.363604 83.999418 
L 377.688583 79.637913 
L 378.013563 85.081571 
L 378.338542 79.213534 
L 378.663522 82.971105 
L 378.988501 75.34439 
L 379.313481 82.844561 
L 379.63846 81.827881 
L 379.96344 75.986722 
L 380.288419 79.186073 
L 380.613399 79.506473 
L 380.938378 84.753773 
L 381.588337 77.045833 
L 381.913317 78.894778 
L 382.238296 82.340821 
L 382.563276 77.441711 
L 382.888256 80.319008 
L 383.213235 78.504476 
L 383.538215 78.191713 
L 383.863194 75.162646 
L 384.188174 79.944212 
L 384.513153 82.475347 
L 385.163112 76.351996 
L 385.488092 82.352936 
L 385.813071 81.758149 
L 386.138051 77.90728 
L 386.46303 83.48192 
L 386.78801 81.012538 
L 387.112989 85.791518 
L 387.437969 75.176417 
L 387.762948 76.122315 
L 388.087928 77.917695 
L 388.412907 83.115236 
L 388.737887 77.60585 
L 389.062867 80.582624 
L 389.387846 78.404987 
L 389.712826 78.089943 
L 390.362785 83.948825 
L 390.687764 82.030314 
L 391.012744 81.837062 
L 391.337723 79.79548 
L 391.662703 80.562941 
L 391.987682 80.501957 
L 392.312662 77.307679 
L 392.637641 77.259805 
L 392.962621 82.038966 
L 393.2876 80.677881 
L 393.61258 73.17068 
L 393.937559 75.10117 
L 394.262539 82.13474 
L 394.587518 74.117915 
L 394.912498 81.536088 
L 395.237477 74.539989 
L 395.562457 78.984269 
L 395.887437 81.075092 
L 396.212416 80.983209 
L 396.537396 71.523894 
L 397.187355 78.357173 
L 397.512334 80.115571 
L 397.837314 83.212896 
L 398.162293 79.969816 
L 398.487273 81.562632 
L 398.487273 81.562632 
" style="fill:none;stroke:#008000;stroke-linecap:square;stroke-width:0.6;"/>
   </g>
   <g id="patch_3">
    <path d="M 57.6 307.584 
L 57.6 41.472 
" style="fill:none;stroke:#000000;stroke-linecap:square;stroke-linejoin:miter;stroke-width:0.8;"/>
   </g>
   <g id="patch_4">
    <path d="M 414.72 307.584 
L 414.72 41.472 
" style="fill:none;stroke:#000000;stroke-linecap:square;stroke-linejoin:miter;stroke-width:0.8;"/>
   </g>
   <g id="patch_5">
    <path d="M 57.6 307.584 
L 414.72 307.584 
" style="fill:none;stroke:#000000;stroke-linecap:square;stroke-linejoin:miter;stroke-width:0.8;"/>
   </g>
   <g id="patch_6">
    <path d="M 57.6 41.472 
L 414.72 41.472 
" style="fill:none;stroke:#000000;stroke-linecap:square;stroke-linejoin:miter;stroke-width:0.8;"/>
   </g>
   <g id="text_16">
    <!-- fig_2_5 -->
    <defs>
     <path d="M 37.109375 75.984375 
L 37.109375 68.5 
L 28.515625 68.5 
Q 23.6875 68.5 21.796875 66.546875 
Q 19.921875 64.59375 19.921875 59.515625 
L 19.921875 54.6875 
L 34.71875 54.6875 
L 34.71875 47.703125 
L 19.921875 47.703125 
L 19.921875 0 
L 10.890625 0 
L 10.890625 47.703125 
L 2.296875 47.703125 
L 2.296875 54.6875 
L 10.890625 54.6875 
L 10.890625 58.5 
Q 10.890625 67.625 15.140625 71.796875 
Q 19.390625 75.984375 28.609375 75.984375 
z
" id="DejaVuSans-66"/>
     <path d="M 45.40625 27.984375 
Q 45.40625 37.75 41.375 43.109375 
Q 37.359375 48.484375 30.078125 48.484375 
Q 22.859375 48.484375 18.828125 43.109375 
Q 14.796875 37.75 14.796875 27.984375 
Q 14.796875 18.265625 18.828125 12.890625 
Q 22.859375 7.515625 30.078125 7.515625 
Q 37.359375 7.515625 41.375 12.890625 
Q 45.40625 18.265625 45.40625 27.984375 
z
M 54.390625 6.78125 
Q 54.390625 -7.171875 48.1875 -13.984375 
Q 42 -20.796875 29.203125 -20.796875 
Q 24.46875 -20.796875 20.265625 -20.09375 
Q 16.0625 -19.390625 12.109375 -17.921875 
L 12.109375 -9.1875 
Q 16.0625 -11.328125 19.921875 -12.34375 
Q 23.78125 -13.375 27.78125 -13.375 
Q 36.625 -13.375 41.015625 -8.765625 
Q 45.40625 -4.15625 45.40625 5.171875 
L 45.40625 9.625 
Q 42.625 4.78125 38.28125 2.390625 
Q 33.9375 0 27.875 0 
Q 17.828125 0 11.671875 7.65625 
Q 5.515625 15.328125 5.515625 27.984375 
Q 5.515625 40.671875 11.671875 48.328125 
Q 17.828125 56 27.875 56 
Q 33.9375 56 38.28125 53.609375 
Q 42.625 51.21875 45.40625 46.390625 
L 45.40625 54.6875 
L 54.390625 54.6875 
z
" id="DejaVuSans-67"/>
     <path d="M 50.984375 -16.609375 
L 50.984375 -23.578125 
L -0.984375 -23.578125 
L -0.984375 -16.609375 
z
" id="DejaVuSans-5f"/>
    </defs>
    <g transform="translate(214.936875 35.472)scale(0.12 -0.12)">
     <use xlink:href="#DejaVuSans-66"/>
     <use x="35.205078" xlink:href="#DejaVuSans-69"/>
     <use x="62.988281" xlink:href="#DejaVuSans-67"/>
     <use x="126.464844" xlink:href="#DejaVuSans-5f"/>
     <use x="176.464844" xlink:href="#DejaVuSans-32"/>
     <use x="240.087891" xlink:href="#DejaVuSans-5f"/>
     <use x="290.087891" xlink:href="#DejaVuSans-35"/>
    </g>
   </g>
   <g id="legend_1">
    <g id="patch_7">
     <path d="M 323.716875 302.584 
L 407.72 302.584 
Q 409.72 302.584 409.72 300.584 
L 409.72 272.22775 
Q 409.72 270.22775 407.72 270.22775 
L 323.716875 270.22775 
Q 321.716875 270.22775 321.716875 272.22775 
L 321.716875 300.584 
Q 321.716875 302.584 323.716875 302.584 
z
" style="fill:#ffffff;opacity:0.8;stroke:#cccccc;stroke-linejoin:miter;"/>
    </g>
    <g id="line2d_16">
     <path d="M 325.716875 278.326187 
L 345.716875 278.326187 
" style="fill:none;stroke:#ff0000;stroke-linecap:square;stroke-width:0.6;"/>
    </g>
    <g id="line2d_17"/>
    <g id="text_17">
     <!-- alpha=0.1 -->
     <defs>
      <path d="M 9.421875 75.984375 
L 18.40625 75.984375 
L 18.40625 0 
L 9.421875 0 
z
" id="DejaVuSans-6c"/>
      <path d="M 54.890625 33.015625 
L 54.890625 0 
L 45.90625 0 
L 45.90625 32.71875 
Q 45.90625 40.484375 42.875 44.328125 
Q 39.84375 48.1875 33.796875 48.1875 
Q 26.515625 48.1875 22.3125 43.546875 
Q 18.109375 38.921875 18.109375 30.90625 
L 18.109375 0 
L 9.078125 0 
L 9.078125 75.984375 
L 18.109375 75.984375 
L 18.109375 46.1875 
Q 21.34375 51.125 25.703125 53.5625 
Q 30.078125 56 35.796875 56 
Q 45.21875 56 50.046875 50.171875 
Q 54.890625 44.34375 54.890625 33.015625 
z
" id="DejaVuSans-68"/>
      <path d="M 10.59375 45.40625 
L 73.1875 45.40625 
L 73.1875 37.203125 
L 10.59375 37.203125 
z
M 10.59375 25.484375 
L 73.1875 25.484375 
L 73.1875 17.1875 
L 10.59375 17.1875 
z
" id="DejaVuSans-3d"/>
     </defs>
     <g transform="translate(353.716875 281.826187)scale(0.1 -0.1)">
      <use xlink:href="#DejaVuSans-61"/>
      <use x="61.279297" xlink:href="#DejaVuSans-6c"/>
      <use x="89.0625" xlink:href="#DejaVuSans-70"/>
      <use x="152.539062" xlink:href="#DejaVuSans-68"/>
      <use x="215.917969" xlink:href="#DejaVuSans-61"/>
      <use x="277.197266" xlink:href="#DejaVuSans-3d"/>
      <use x="360.986328" xlink:href="#DejaVuSans-30"/>
      <use x="424.609375" xlink:href="#DejaVuSans-2e"/>
      <use x="456.396484" xlink:href="#DejaVuSans-31"/>
     </g>
    </g>
    <g id="line2d_18">
     <path d="M 325.716875 293.004312 
L 345.716875 293.004312 
" style="fill:none;stroke:#008000;stroke-linecap:square;stroke-width:0.6;"/>
    </g>
    <g id="line2d_19"/>
    <g id="text_18">
     <!-- alpha=0.4 -->
     <g transform="translate(353.716875 296.504312)scale(0.1 -0.1)">
      <use xlink:href="#DejaVuSans-61"/>
      <use x="61.279297" xlink:href="#DejaVuSans-6c"/>
      <use x="89.0625" xlink:href="#DejaVuSans-70"/>
      <use x="152.539062" xlink:href="#DejaVuSans-68"/>
      <use x="215.917969" xlink:href="#DejaVuSans-61"/>
      <use x="277.197266" xlink:href="#DejaVuSans-3d"/>
      <use x="360.986328" xlink:href="#DejaVuSans-30"/>
      <use x="424.609375" xlink:href="#DejaVuSans-2e"/>
      <use x="456.396484" xlink:href="#DejaVuSans-34"/>
     </g>
    </g>
   </g>
  </g>
 </g>
 <defs>
  <clipPath id="pfff6171800">
   <rect height="266.112" width="357.12" x="57.6" y="41.472"/>
  </clipPath>
 </defs>
</svg>
